<svg width="1652" height="1581" xmlns="http://www.w3.org/2000/svg"><path d="M378.922 1272.256c.302-.073.526-.175.868-.32 1.366-.58 2.97-1.502 4.222-.9 2.97-.367 5.81-1.231 8.578-2.305 3.962-1.79 7.728-4.788 8.721-9.226.675-2.896 4.222-3.656 5.74-6.121 3.055-2.104 3.244-5.972 4.562-9.127 1.473-4.839 2.192-9.843 3.48-14.73.976-4.215 1.88-8.43 2.295-12.74.724-3.132 2.008-6.123 1.66-9.442 1.26-2.987 1.033-6.361 2.538-9.228 1.506-4.876 2.43-9.941 2.637-15.03 1.261-5.777 2.066-11.649 3.408-17.402 1.499-5.1 1.796-10.455 2.827-15.662.9-4.661 1.533-9.39 2.801-13.964.52-3.653.123-7.365.922-10.986.21-3.207.798-6.339 1.74-9.408.528-3.118.536-6.292 1.1-9.419.62-3.637 1.265-7.495-.14-11.032-2.246-3.189 1.798-5.749 3.026-8.406 1.687-3.368 1.743-7.284 3.194-10.73 1.491-2.495 4.122-1.464 5.23.263 3.272 1.207 6.628.291 9.975-.42 3.76-.482 3.32-5.57-.301-5.993 2.138-2.203-1.998-4-3.617-5.594-1.989-2.315-3.704-5.03-6.616-6.344-3.906-1.94-2.457 4.45-4.923 5.952-2.221 2.325-4.216 4.96-4.955 8.221-2.136 2.55 1.113 7.925-2.031 8.925.094-3.316-.226-6.78.167-10.147.943-4.308 1.13-8.715 1.51-13.092 1.061-5.888 1.44-11.873 2.067-17.81.559-5.423 1.04-10.852 1.94-16.23.385-4.256.503-8.532.894-12.79.52-4.422.566-8.923 1.767-13.253 1.171-5.142 2.647-10.288 2.776-15.592.577-5.088 1.368-10.19 1.4-15.321-.675-5.082-.023-10.206.347-15.289 1.593-3.349-.695-7.365 1.93-10.341 2.186-2.746 2.957-6.34 5.222-9.014 3.656-3.133 3.99 2.492 2.509 4.791-.666 3.635 4.038 4.64 5.514 7.353 1.697 3.077 5.17 3.833 8.26 4.678 2.738 1.605 4.17 4.649 6.318 6.926 1.437 3.012 4.93 4.165 7.039 6.655 3.093 2.927 4.337 7.165 6.449 10.77.836 3.312 1.338 6.756 2.931 9.835.902 3.078-.012 6.298.863 9.383-.022 2.978 1.26 5.755 1.374 8.74.944 3.362 1.993 6.79 4.275 9.506 2.389 4.677 6.66 8.088 11.022 10.84 3.25 2.108 2.401 6.128 2.241 9.354.05 2.524.516 7.262 2.34 8.002.386-3.772-1.436-7.595-.333-11.363 1.187-3.509-1.5-6.261-4.215-7.94-3.735-2.688 4.268-1.489 5.883-.215 1.562.615 4.921 4.926 3.154 1.034-.793-3.111-3.934-4.391-6.803-4.884-3.52-.458-6.685-2.297-8.755-5.172-2.082-2.576-2.697-5.976-3.882-9.01-.87-4.12-.475-8.41-1.606-12.5-.873-5.045-.738-10.185-1.822-15.188-.845-3.797-1.355-7.73-2.961-11.304-1.202-3.59-1.63-7.523-3.927-10.644-1.593-3.473-3.762-6.786-6.926-9.001-2.712-2.55-4.592-6.209-8.571-7.051-.316-4.012-5.001-1.463-6.69-4.15-4.045-1.194-1.484-7.05-5.861-8.166-3.705-.372-5.266-4.05-8.037-5.946-3.283-2.03-7.99-2.28-9.915-6.068-1.114-3.048-4.959-2.15-6.647-.51-2.902-1.614.8-5.609-.19-8.248.164-2.579-.831-7.91 3.043-7.862 2.601-.259 5.059.405 7.439-.811 1.996 1.93 2.367 5.485 4.95 7.206 2.626 1.42 4.79 3.595 7.619 4.63 1.147.67 4.923 1.886 4.578 1.862-2.486-1.875-4.961-3.89-7.626-5.652-2.796-2.07-5.884-4.418-6.9-7.913-2.775-2.155-1.605-6.106-3.046-8.936-1.28-2.27.832-2.944 2.456-1.856.249-1.804.917-3.378 1.146-5.085 2.694 2.211 6.462-.13 4.677-3.449-.481-2.293-3.064-4.415-.083-5.882-1.528-.918-.23-3.564-2.844-3.458-1.59-.91-.576-3.452-1.546-4.92 1.987-.308 4.029 3.179 6.174.497.46-2.561 1.432-6.634-2.538-7.18-2.195-1.784-.93-6.37-3.478-8.202-1.893-.167-3.439-1.577-1.13-2.76.093-2.359-4.77-2.445-3.232-5.367-2.205-.952-7.526 1.71-6.827-2.832.58-2.62 3.835-4.428 1.758-7.032 1.638-2.582 5.19-3.028 6.767-5.72 2.785-.199 4.895-2.93 3.05-5.452-.62-2.638.132-6.668-3.944-5.75-2.44-2.216-5.597-.426-7.715 1.189-1.703 1.752-.485 4.809-.794 6.27-3.206-1.015-4.627-4.656-6.917-6.939-1.073-1.08-2.931-3.941-1.913-.643-.896 2.345-3.35-2.2-4.673-2.945-1.871-3.894-5.443.55-7.841-1.257-1.686 2.615-6.261 1.698-5.685-1.893-.504-3.328-1.095-6.924-4.112-8.988-2.94-2.1-6.847-1.078-10.235-1.548-2.072.806-7.242.187-3.841-2.473.36-2.304-2.004-3.37-3.077-1.271-3.174-.507-5.811-2.868-8.258-4.864-2.607-1.53-5.443-2.645-6.152-5.807.714-2.17-2.124-3.431-1.575-.538.28 1.521 2.047 4.848-.886 4.559-1.677-2.697-1.3-6.165-2.41-9.099.165-2.771-1.389-6.45-.443-8.302-3.63.32-2.644-5.243-4.425-7.504-2.762-1.313-4.454-3.863-5.204-6.8-.516-4.086-6.13-2.036-6.833-5.572-.839-3.814-3.384-7.182-6.523-9.46-3.557-2.576-7.682-4.594-10.344-8.245-2.02-2.693-1.307-6.074-1.304-9.177-1.052-2.717 1.168-4.417 3.41-5.01-.578-2.521 1.53-6.313 4.667-6.318 4.196-.901 2.184-5.956 3.807-8.84 1.246-2.162 2.744-3.767 4.668-5.07-1.073-2.883-2.428-5.83-4.905-7.821-2.188-2.616-5.143-4.105-8.277-5.31-2.806-1.149-6.014-.84-8.78-2.244-2.135-.171-3.918.341-5.422-1.318-3.307-.048 1.631-2.227 2.232-3.627 2.77-.308 6.28-.368 5.874-4.305 1.047-3.138-.778-5.614-1.96-8.254 1.567-2.584-.207-6.902 4.1-7.101 3.478-.928 7.585-.115 10.861-1.985 2.635-3.648 4.54 3.343 8.086 1.412 2.292.772 4.392 1.55 3.495-.852 1.805-.12 6.254 3.669 2.3 2.416.004 2.736 4.171 4.296 6.572 5.38 4.103-.689 4.362 4.9 8.184 4.727 1.457.246 6.26.982 5.86-.357a18.74 18.74 0 01-8.593-3.395c-2.164-2.578-3.967-5.435-6.57-7.626-1.792-1.28-5.21-3.663-6.92-2.76-3.15 1.293-3.75-2.859-6.67-2.907-2.536-2.256-6.156-1.182-8.798.252-3.279.32-6.46-.345-9.431.043-4.207.327-2.366 6.828-6.853 6.813-1.841 1.87-4.681 2.01-6.341 4.368-3.017 1.876-6.22-1.36-7.912-3.47-1.641-2.675-6.92-4.488-9.207-2.099 1.397 3.526-2.58 2.286-4.025.82-3.297-.907-6.238-2.898-9.314-4.197.856-3.212 4.356.079 5.777 1.305 2.756 1.434 8.276-.63 5.08-3.963-.29-2.718-3.959-3.025-4.848-4.738-1.277.852 1.196 3.717-1.426 4.054.06-2.807.588-6.136-2.207-8.1-.907-1.166-5.78-1.258-2.572-2.599 3.592-.748 5.365-4.385 8.5-5.78.925 1.809 3.63 1.598 2.963 3.929.686-2.763 2.934-3.141 4.702-1.66 2.909-3.113-2.856-3.3-4.739-3.117-2.362-1.02 1.55-4.848-2.136-4.926-2.347 2.808-4.23-1.32-2.6-3.301-2.3-2.704-.072-6.056 3.012-3.616 2.243-2.073 5.342.815 7.26-1.369 1.135.986 5.196-.405 1.844-.319-2.197-2.068-4.676 1.574-7.376-.234-2.648-1.951-5.852-2.691-8.703-3.95-2.616.681-4.602 2.64-7.61 1.63-1.39-.323-4.532 3.068-4.497 1.008 2.267-.19 1.679-2.88 4.175-3.103 1.354-.895 2.168-3.717.144-1.603-1.717 1.535-3.806-.667-5.437.963 3.384.467.998 3.837-1.482 2.527-1.28-.835-2.772-1.612-1.617.666.006 3.222-2.812 3.949-4.962 1.876-2.66-.164-5.974.286-8.222 1.648-1.686 2.112-6.354.284-7.035-1.977.143-3.261-3.824-5.52-5.818-6.006.61-1.055-3.51-.85-1.617-3.16 2.476-.472 6.622-.472 6.815 3.064.567-2.825 4.955 1.528 3.959-1.995 1.23-2.661 1.389 3.579 2.606.52 1.562-1.153 1.616 1.86 3.427 1.285 1.509.338 3.423.465 3.567-1.347 1.488-.522-.566-2.831 1.565-3.255.626-1.167.004-1.964 1.252-1.548 2.418-2.104 3.2-5.51 1.08-8.281-1.206-2.02-2.26.273-.4 1.086.723 1.962.077 2.122-1.417 1.82-.984.971 2.4 2.443-.284 3.156-.365.51-.27-1.964-2.08-1.478-1.332-1-4.206-1.96-4.594-3.518 1.459-.138 6.252 2.75 2.852-.19-.701-1.702-.648-2.557-2.074-1.302-1.319-.491-3.557-1.736-1.62.322.537 2.768-3.522.302-4.871 1.855-1.943-.381-3.428-1.2-3.768.985.518 2.026-.807 2.784-2.68 1.681-.578.836.076 3.868-2.33 2.542-.755-1.016-1.534-1.572-1.993-.17.923-1.823.05-2.456-1.413-2.272-.853 3.354-2.765-4.1-.3-4.351-3.089 1.408-3.047-5.082-4.844-3.797.046 2.62 3.787 4.77 1.262 7.525-.232 3.277 3.273 4.89 3.649 8.003-1.945.16-1.98-2.173-3.72-.489.264-1.702-1.646-4.381-3.037-4.454.56 1.253.828 4.207-1.156 2.368-.59-1.096-.974-7.686-2.25-3.895.016 1.63 1.582 5.443-1.25 3.293-2.222-.294-5.42 2.679-7.816.55.32-.61 2.63-1.414.323-1.94-1.33-1.035-3.402-2.926-2.978.242 1.69 2.282-.62 5.551-.035 8.582.787 2.805.216 6.537 3.16 8.123.454.79 2.625 2.767.22 2.263-1.506-.045-2.712-1.346-3.912-.781-.11-2.919-2.318-6.307-1.294-8.788 2.142-3.117 1.85-7.716.301-11.107-.804-3.052-4.07-3.797-6.147-5.811-1.318-1.674.27-4.04-.36-6.07 1.954-3.026 5.64-2.086 7.827-4.844 1.662.15 2.431.165 1.31-1.648.478-2.147.408-4.743-1.905-2.585-1.53-.49.99-5.87-1.116-3.958.063 3.998-5.983-2.758-4.441 1.313 2.976-.03 2.361 4.197 2.155 5.807-1.517-.83-3.208.123-2.426 1.96-1.665-.25-2.826-.685-1.11 1.093.44 1.777-2.893 2.06-1.497 4.359-.8 4.06-3.234-1.985-4.988-2.493-2.369-1.094-4.71-2.317-7.046-3.425-1.233-.354-4.046.985-4.086.107 2.307-1.096 5.315-.847 7.345.996 1.879-1.25-2.941-3.645-4.553-3.447-1.069-.33-4.082 1.223-2.393-.608 2.23-.627-.438-4.053 2.8-3.587 3.031-1.592 2.435-5.634 4.86-7.344-.446-1.462-2.522 2.823-4.195 2.383.025 2.739-3.786 2.35-4.515 4.87-1.051.19-3.648-1.346-3.698.208 4.61-.534 2.927 6.32-1.026 4.93-2.735-.96-5.796 2.114-7.528-1.159-2.603-1.966-2.56-5.548-4.586-7.965-1.524-.958-1.442-3.574-3.5-1.58-3.177-1.151-6.816-1.011-10.262-1.582-1.699-2.834-5.167-.025-7.103-2.448-1.243-.738-2.144-2.038-1.984-3.14-3.065.13-4.608 3.703-7.918 3.037-2.521-.291-5.084-2.474-7.054.001.502-3.216-3.171-4.537-4.766-6.88-.725-1.57.917-3.196-1.787-3.067-1.827-1.07 1.47-1.223-.418-2.538-2.322-.836-3.46-3.508-4.966-5.01-1.732.245-2.52-1.03-4.178.33 1.499 1.311.918 4.262.864 6.029-1.538.786-7.232 2.497-2.89.929 1.793-1.266-.501-1.588-1.518-.907-1.526-1.928-2.17 3.462-2.776.06-.936-4.019-5.277.26-6.817-3.349 1.14-1.64-2.23-1.133-2.091-3.137-1.51-.93-.583-6.236-1.911-2.586-.676 3.171 3.946 5.249 3.085 8.05-1.957-.95-3.696 3.804-4.405.765-1.79-.278-1.546-5.214-3.435-2.651-1.051 1.63-.654 4.655 1.25 4.802-2.734 2.587 4.277.626 1.698 3.791-1.285 3.235-4.16 4.237-7.27 4.59-3.658.976-7.043-.007-10.362-.733-1.775-.721-6.692 1.438-5.699-2.103-2.307-3.33 4.543-2.789 2.604-6.589-.702-3.09-1.542-6.27-3.25-8.952a54.278 54.278 0 00-5.385-8.947c-2.257-2.66-5.365-4.324-7.725-6.864-1.19-1.287-4.887-.267-3.892-3.032-2.33.053-4.798 5.329-7.12 1.517-.726-2.343-4.203-.65-5.03-3.039-2.522 1.17-6.126.32-8.143-1.164-2.108.322-3.044-1.104-.503-1.56.189-1.567-.813-4.853 2.194-3.504 2.374.984 3.313-2.075 5.77-.903 3.402.469 6.097-2.522 9.489-.985 2.409-2.164 5.565-1.6 8.443-2.19 2.353-1.966 5.796-1.544 8.619-2.579 2.945-.367 5.974-1.972 8.366.608 1.804.184 4.33 2.089 4.65-1.138.008-2.696 2.709-6.405.208-8.601-2.737-1.217-.622-6.268-4.019-7.843-2.34-.884-5.958 1.507-6.296-2.502-2.097-.011-5.254-.34-6.125-2.907-2.1.642-7.348-1.748-7.046 2.333-.94 3.473-3.482 5.968-5.295 8.901-3.862.387 1.318-4.62-1.248-6.641-1.12-2.062-2.043-4.385.69-5.374 1.43-3.032-2.87-2.83-4.513-1.882-1.579-.243-2.715-2.623-3.992-1.156.253-1.758-.674-5.31 2.39-3.86 3.37 2.69 3.745-3.11 2.25-5.029-.148-2.317 4.208-5.322 5.51-3.805-.998 1.954-1.855 4.398-1.93 6.301.768 1.65 3.148 2.892 3.471.298 1.812-.201 1.3 3.37 3.52 1.572 2.44-.453 5.298-2.319 7.65-.982.987 4.615 6.317 1.582 9.026.575 2.227-1.146 6.386-1.787 7.947-.204-2.873-.08-2.079 1.645.321 1.554 2.144-1.42 3.994-2.387 6.627-1.688 1.52-.483 3.014-1.457.288-1.079-2.872.76-4.047-1.02-3.844-2.163-1.64 2.937-4.4-1.174-5.049-1.564-1.101 2.276-2.913-.734-4.722.573.142-1.62 2.271-2.147 2.166-3.433 2.613.4 1.935-1.932 2.966-2.708 2.692-.311-3.162-1.15-2.893 1.253-1.477 1.096-3.088 0-1.613-1.483-1.214.827-2.55 2.169-4.464 1.503-.447 2.54-3.915 4.595-5.63 2.722 3.178-2.713-2.408-.758-3.732.127-2.86.56 1.29-2.256.113-3.959 1.66-2.876 4.54-5.132 7.672-6.402 3.226-1.271 6.632-2.554 8.966-5.205-1.992-.517-5.312 2.711-8.022 3.065-2.85 1.329-6.033 1.13-8.864 2.387-3.48.905-6.629 2.743-9.642 4.668-3.392.337-6.017 2.7-9.28 3.41-2.786-.291-5.394-3.505-8.564-2.256-.962 1.555-.748 4.893-4.014 3.662-2.408.153-5.608 1.032-5.805-2.536-.673-1.741-1.844-3.758.77-3.957 2.412-1.954-1.665-4.06-1.173-5.958-2.404-1.763-.326-3.966-.148-6.081-.094-2.401 1.696-4.313 3.197-3.846 1.968-1.77-2.399-1.057-2.052-3.383-2.325-3.204.704-6.297 2.479-8.474.56-1.831 2.547-5.213 4.494-2.807 1.047-.487-.45-3.676 2.4-2.905 1.526 1.597 2.114-2.051 3.856-.416 2.44-1.706 5.774.014 6.678 2.457 2.593.637.31-4.213-1.554-2.985-.555-1.426.232-6.496 1.991-4.343.48 1.735 5.666 1.623 6.175.623-2.11-.323-2.434-1.108-1.735-2.532-3.437-.373-.765-2.072.592-2.394-.143-2.18 2.978-.535 3.881-.565 1.698 2.73 5.495-.288 7.304-.958.88 1.08 2.513-.938 3.937.175 1.776-1.259-4.566-1.811-1.103-2.854 3.89.476 5.913-3.83 9.478-3.797 1.58.958 5.637 1.563 3.856 4.685-2.725.85.274 4.041.972 1.42 2.849-2.227 6.53-2.055 9.755-1.204 2.764-.666-.111-1.148-1.214-1.431.016-2.775 3.774-5.16 6.468-5.719 2.608-.629 5.71-1.366 7.84-.567 1.729-1.075 2.893 4.26 2.767.928 2.546-.233-.387-4.589 2.943-4.145 2.92-.2 4.496-1.623 6.27-3.336 3.793-.733-1.252 4.874 1.976 5.694-1.156 2.873 3.143 3.963 1.258 6.997-.247 2.065.765-1.704 2.14-1.193.535-2.305 3.087-3.313 4.295-1.482-2.794 1.474.445 4.703 2.62 4.9 1.565.087 2.618 4.555 2.683 1.117.24-2.487-.625-3.497-.922-5.981-1.39-1.804.41-2.555.781-.325 1.968 2.583.61-2.432.37-3.585 1.476-1.005 1.15-5.349 3.363-2.84.357-1.744.594-3.215 2.164-1.076 2.288 2.517 5.47-.73 8.356 1.162 1.595 1.553 4.48 3.648 6.846 2.466 1.576-1.141 3.173-.551 1.645 1.197.677 3.766 3.91-2.225 4.717 1.777 2.626 2.448 5.114-1.975 2.658-3.806-1.168-3.51.39-6.258 4.2-5.629 2.672-.748-1.523-.813-.667-2.912-.94-1.464-2.05-2.49-3.564-2.525-.424-2.396.145-5.818 3.21-5.072 3.7-.74-.674-4.755 2.663-5.002 1.3-.107 1.744-3.196 3.04-.827.975-1.082 2.867 1.105 2.438-1.442 1.906.513 3.211 4.945 6.23 3.001-.136 1.089-2.332 3.761.703 3.28 2.898.183 3.539-2.137 5.026-3.726 3.385.027 6.022-3.985 9.44-1.848 1.314-.17 1.604-2.293 2.93-.515 1.738-1.353 3.057-7.32 5.62-4.527-1.123 3.069 1.831 4.974.063 8.066-.973 1.169-2.022 5.864-.88 2.392 2.77-1.27 3.427-4.013 4.164-6.662 2.297.444 2.775-3.011 5.08-2.12 1.263-1.645 4.331-3.227 5.637-3.02.443 1.926 1.112 4.61-.247 6.736 3.021 1.458-1.1 4.412-.276 6.854-1.662 1.538-4.378 4.903-3.133 6.429 1.41-2.46 3.778-4.29 3.922-7.352.495-2.163 1.782-6.097 4.418-3.917 1.733-1.252 5.214-.447 3.685 2.008 1.73 1.314-1.741 1.3-1.971 2.65-2.593.771-1.119 2.165.985 1.562.486-.445-1.94 1.14.033 1.837 2.654.278 6.372 3.344 8.174.196-.436 2.01 3.198 2.263 1.043 4.344 1.166 1.56-1.959 3.465 1.051 4.182.967 3.198 5.545 2.771 4.976 6.697 1.788 1.59 4.798 1.266 5.723 4.057 2.626 1.776 1.19 5.798 2.504 8.445-2.493 3.297 3.973 2.923 4.882 5.392.54 3.137 6.984 1.851 5.404 5.081 1.274 1.261-2.847 2.763.053 2.47.95.81.999 2.46 2.539 3.045.682 1.527 1.786 3.251 1.9.581-.305-1.713.018-6.314 2.545-3.646 3.06 2.017 4.259-2.896 6.769-3.99 1.77-2.435 3.668-6.392 6.482-7.046 3.17.095 5.481-3.048 7.846-4.785 3.283-2.116-2.691-2.051-1.184-3.586 2.92-.63 7.884-2.664 8.018 1.743 1.988-2.05 4.717-3.763 7.456-5.08 2.834.597 1.664-5.807 3.69-3.47-1.416 3.238 4.652 1.769 2.128 4.244-.62 2.745-2.874 4.413-4.2 6.59 1.844 3.901 3.245-1.58 5.763-2.005 1.34-1.375 4.367-3.595 3.396-.308 1.297 1.65-.548 4.41 2.583 4.778.02 2.122 1.772 3.362 1.475 5.528 2.625-.673.993-5.341 2.352-5.536.775 1.556-.352 6.725 2.722 4.398 1.847-1.425-1.944-2.397.305-4.25 1.038-3.128 2.909-.626 4.002-.171-1.772-1.788-3.73-4.817.216-4.919 1.68-.152 2.116-1.964 3.725-.387 1.906.065 6.035-1.88 4.886 1.88 3.651-.493 1.508 3.493 3.027 5.268-.58 2.585 3.878 2.383 1.517 4.71.615 2.808 4.734 4.677 3.33 7.444-1.57 2.783 1.183 2.75 1.861.436 2.69.573 2.711-3.215-.087-2.326.196-1.359 1.24-3.326-1.232-2.927-.329-1.557-2.101-6.353.646-3.58 3.268 1.81-.42-4.751-2.598-3.063-1.708-.124-1.72-2.392-2.083-3.809-1.748-2.11-1.388-4.13-2.339-6.395 2.207-.698 6.462-1.855 4.51-4.953 1.125-2.295 5.33 1.026 5.763-1.193-2.331-.714 1.71-1.66 2.47-.896 2.79 1.026 5.384-1.114 7.893-2.083.224 2.307 1.887 5.256-1.67 6.11-1.767 3.263-.11 6.113 1.701 8.97 2.283 2.75 6.502.656 9.203 2.406.423-2.494 4.588-.1 6.707-1.194 4.01-.305 8.836.107 11.603-3.436 2.516-2.681 6.977-.58 10.016-.064 1.282-.318 4.363.946 5.572-.756 3.096-1.005 6.52-1.885 9.994-1.12 1.64 1.743 2.681-.028.975-1.338-1.828-1.166-4.909-.768-4.964-3.351-2.054-.665-4.112 3.66-4.18-.173-1.734-2.458-5.783-1.102-6.725-4.137-.47-3.542-2.466-6.358-5.858-7.639-1.46-3.086.283-6.926-.767-10.273-.044-3.015-1.518-7.413-4.585-6.454 3.808-1.394 3.632-5.891 4.233-9.208.586-1.913-.039-5.617 1.652-6.371.434 3.615 1.501-1.549 1.06-2.726-4.124.296-1.117-5.709-1.409-8.179-.248-2.573.048-7.576 4.095-5.374 2.168 2.63 1.034-1.75-1.123-1.473-3.508-1.153-4.75 2.936-5.756 5.126-1.784-2.391-1.82-5.838-2.087-8.77.428-2.164 2.245-3.49-.818-4.442-.823-2.676.111-6.09 1.285-8.333 2.437 1.694 3.759-2.823.862-2.714-.953 2.338-1.603-3.209-1.59-4.193.216-2.427-2.916-8.323 1.096-7.932 1.721-1.688 3.596 1.346 4.808-.03-2.23-1.215-6.266-4.337-8.236-1.208.199 2.308-1.204 2.23-1.775.149-1.403-2.575-1.244-5.713-3.014-8.102-1.593-1.142 2.324-2.485-.64-2.99-1.723-1.19-4.794-4.622-3.535-6.255 3.563 1.511.798-4.301-.65-4.437.94 2.162-1.254 5.472-2.619 2.133-.67-2.81-3.68-3.936-5.088-5.813 1.558-2.234-1.37-.842-2.046-.074-3.167.308-1.98-4.422-2.613-6.449.214-3.307.417-7.34-2.381-9.688-1.214-2.486.584-6.749-3.151-7.887-3.632-2.116-1.078-5.496 1.122-7.338 2.378-2.924 2.664-6.757 1.636-10.297-.471-3.315-1.036-7.586-5.056-8.25-2.177-.925-8.478-.653-5.742-4.435-.167-2.213-1.97-7.514 2.342-6.36 2.835.821 3.957 5.048 7.055 2.252 3.979-1.48 2.86 5.837 6.627 4.092 2.927 1.266 6.086 1.972 9.25 1.742 1.43 2.219 5.059-.541 4.776 2.999 1.773 2.258 6.169-1.784 6.035 1.891 2.469 1.195 4.14-2.822 7.071-1.099 4.293 1.12 8.591-2.147 9.607-6.268 2.376-.987 6.237-2.007 9.358-2.07 3.11.013 6.28.894 9.34 1.56 1.998 1.17 6.334-1.086 4.345 2.584 1.658 2.725 3.25 5.276 3.597 8.54.996 1.661.548 5.257-1.86 3.052-2.251.977.351 6.553-3.474 4.82-4.034.957-3.072 6.393-1.858 9.27 1.607 2.926 3.4 5.768 4.942 8.72 1.616 2.778 3.557 5.328 5.967 7.467 1.486 2.292 5.092 4.96 3.132 7.924-.31 2.241-.132 4.288-1.563 5.928.144 3.31 5.89-3.463 4.693 1.302-.726 3.62 6.513 1.32 3.443-1.372.105-2.556 3.621-6.863 6.625-5.694 3.019.55 5.864-1.13 8.905-.734 3.176.043 6.425-.052 8.117 3.029 3.498 1.85 7.294 3.213 11.304 3.248 5.265 1.014 10.574 2.002 15.958 1.674 2.914.113 5.686 2.007 8.654.91 3.065-1.674 6.643-1.421 9.7.077 2.893 1.197 5.963.632 8.952.554 2.965.91 5.292 3.207 8.26 4.11 3.34 1.505 6.462 3.596 10.167 4.163 1.473.355 1.354 1.918 2.79 2.009-.46 2.365 1.308.617 1.51-.889 3.339-1.275 6.904-1.343 10.406-1.95 3.36-.106 6.245-1.961 9.337-3.007 4.15-2.025 7.837-4.842 12.032-6.78 2.777-2.068 3.704-5.894 6.657-7.911 2.71-2.391 6.534-2.424 9.705-3.85 1.067-2.01 3.86-.165 5.845-1.188 3.271-.127 6.441-.988 9.694-1.336 4.44-.72 8.892-2.314 12.397-5.156.911-.83 5.04-4.769 1.68-2.676-3.85 1.85-7.74 3.773-11.903 4.77-3.692.515-7.448.624-11.119-.13-3.313.552-5.493-2.01-8.246-2.895-1.832-1.599-1.897.722-1.61 1.285-1.824-.244-3.161-.178-2.923-1.968-2.893.47-6.107-1.623-7.193-4.33-3.598-1.35-2.654-5.41-1.017-7.981 2.352-5.037 5.254-9.829 7.122-15.073 1.454-3.196.646-7.167 2.795-10.04a11.708 11.708 0 018.237-5.67c2.791-2.182 6.04-3.247 9.527-3.734 2.847-1.355 4.173-4.634 7.32-5.72 2.804-1.15 5.57-2.442 8.23-3.94 2.411-1.821 5.158-3.116 7.574-4.995 2.352-2.191 5.27-3.679 8.38-4.437 3.05-1.495 6.396-2.178 9.687-2.93 3.547.168 7.255.94 10.65-.6 2.933-2.208 6.628-2.226 9.99-3.289 3.348-.491 5.88-2.758 8.924-3.897 3.58.026 7.174.041 10.683-.88 3.373-.576 5.67-3.661 8.992-4.593 3.385-2.002 7.388-2.786 10.505-5.293 2.225-2.086 4.259-4.353 6.55-6.4 2.616-2.624 5.096-5.392 8.187-7.484 2.637-1.915 5.37-3.745 7.634-6.135 2.67-2.77 4.103-6.55 4.598-10.336.68-2.922 2.07-5.645 3.73-8.123 1.685-1.454 5.82-4.524 7.103-1.683 2.922 1.794 5.946 3.355 9.038 4.797 2.375.844 2.965-2.267.366-2.293-1.697-1.834.19-1.613 1.359-2.386-1.968-1.561-5.462-.59-6.332-3.983-.966-1.854-1.5-2.764-3.01-3.174.513-3.401-4.254-.094-4.536-3.574-1.988-2.678.067-5.855.085-8.796.644-2.654-.338-7.806 3.676-7.507.787-2.077 5.32 1.05 3.1-1.753-.53-2.232-4.72-1.431-5-4.512.176-3.36 1.64-6.684 1.512-10.17.175-4.566.382-9.125.693-13.68.398-2.166 4.364.718 2.786-2.267-2.153-2.306-3.652-4.938-2.95-8.277-.024-4.319-.38-8.631-1.13-12.9-.771-3.642-.564-7.575 1.629-10.7 1.885-3.417 2.52-7.516 2.299-11.395-.678-3.855-1.659-7.66-2.857-11.402-.331-4.082 5.504-2.168 7.74-4.278 3.085-1.932 4.237-5.703 7.182-7.774 2.411-2.993 5.787-4.715 9.216-6.226 3.627-.209 6.364-3.302 10.072-3.17 2.59-.96 4.95-2.783 7.753-2.736 3.3-.523 6.442-1.638 9.796-1.918 3.421-1.073 7.256.43 10.522-1.519 3.046-.63 5.617-2.356 8.392-3.587 4.09-.495 8.035-1.774 11.797-3.429 2.316-1.199 3.774.983 6.115.112 3.114.838 6.14-.855 9.051-1.788 3.384-1.45 6.786-2.873 10.098-4.489a9.64 9.64 0 00.645-.259c1.489 1.88 1.587 4.404 2.044 6.674.501 2.617.685 5.303 1.436 7.865.167 2.65 4 1.652 4.047 4.231.045 2.165 3.78 4.68 1.817 6.525-1.212 1.297-2.55 3.282-3.545 4.98 1.18 1.573 1.858 3.556 2.014 5.689.44 2.19.072 4.35-.968 6.236 1.35 1.077 2.841 2.255 2.75 4.321.346 2.998 3.388 2.212 4.932.858 1.401 1.222 4.826-.013 5.396 2.376-.822 2.093 1.244 3.78 2.678 4.88 2.686.13 1.212 2.866 2.503 4.112 3.134.019 1.38 3.392 2.787 4.836 1.614 2.139 4.297 1.056 6.35 1.18.926 2.99 4.616 1.361 5.63 3.948.208 2.179 1.82.393 2.133-.706 2.244-1.216 1.18-3.923 3.035-5.237-.763-1.366-.015-2.936 1.544-3.608 2.02 1.57 3.613-1.417 5.634-2.034 2.369.319 3.529-1.886 5.74-2.066 1.95 1.48 4.775.409 5.778-1.832 1.17-.29 3.78-.229 5.174.652 1.663 1.375 1.135 4.05 2.958 5.36 1.046 2.067 1.098 4.542 2.644 6.274.904 2.347 4.398-.054 4.924 2.965-.697 1.793.719 2.839 1.166 4.452-2.637.863-2.167 3.616-1.136 5.586.782 1.881.566 4.202 1.708 5.79 1.468 1.885 2.313 4.458 1.684 6.827.34 2.302-1.329 5.422.602 7.118.88 2.578 3.57 3.05 5.433 4.714 2.14-.11 2.949 2.93 4.932 2.275 1.954-.897 3.878-1.74 6.002-2.133 2.9.596 3.827-2.222 5.179-4.097 1.128.676 4.017.709 4.487 2.197-1.285 1.104-2.944 5.467.316 4.925 2.187-1.322 5.205-2.017 7.323-.176 1.118-.292 2.324-1.448 3.492.1 1.87 1.633 2.079 4.434 4.443 5.593 1.21 2.134 2.088 4.574 1.584 7.117.255 2.324 1.388 4.914-.216 7.034-1.69 1.932.652 3.925.433 6.095 1.029 2.176 1.387 4.9 3.427 6.424 1.867 1.444.651-1.129 1.498-1.738 1.91 2.146 1.871-.62 2.194-2.169.167-2.487 2.208-3.896 4.533-4.146 1.98.668 4.107-.42 5.821.841 1.544-1.687 3.372-.81 4.646.658 1.758.357 2.44 1.586 3.58 2.705 2.174.029 4.403-.483 6.108-1.896 2.285-.915 4.75-.552 6.978-1.804 2.618-2.657 3.013 1.53 4.156 3.14 1.983 1.026 2.782 3.527 4.982 3.6 1.555 1.553 3.76 3.209 3.223 5.752 1.536.9 1.148 2.762 2.386 3.829 2.193.214 2.584-1.89 1.477-3.347.337-3.147 2.148.03 3.43.586 2.334.069 4.541 3.577 2.193 5.125-2.283.808-3.584 2.85-4.343 5.022-2.425.203-1.21 2.394-1.145 3.92-.736 1.94-.554 4.188-1.325 5.968-2.078.536-.573 2.694-1.603 3.986 1.348 2.373 3.318-.586 5.09-.062 2.662-.245 2.434 2.702 1.771 4.403.28 2.098 1.964 3.689 3.117 5.393 1.593 2.628-2.138 2.838-3.33 4.168-.415 3.15-4.742.977-5.093 4.25-1.938 2.083-.279 4.333 1.088 6.093-.635 1.077-2.8 3.844.01 3.18 3.006-1.173 3.443 3.26 6.022 3.332 2.502-.76 5.125-.964 7.703-1.296 2.228-.185 4.801-.936 6.38 1.181 1.417 2.338 4.406.275 6.195 2.18 2.76-1.006 4.903 1.802 7.618 1.558 2.016-1.09 4.38-1.097 6.388-2.08 1.75-1.501 3.056-3.674 5.609-3.793 1.455-1.972 3.838-2.61 6.205-2.633 1.928-.726 4.766-.48 5.984-2.388.752-3.095 1.652-6.183 2.033-9.359-1.15-1.841-1.124-3.656-.253-5.714 1.034-1.943 3.087-3.309 5.185-3.936 2.16-1.27 1.32-5.173 4.459-5.437 2.18-.57 2.755-2.964 4.082-4.37 1.624-.725 1.937.088 1.809 1.674.377 2.596 2.025.363 3.772.67 1.868-1.125 1.858.6 2.534 1.65 1.894 1.759-2.49 2.916-1.018 5.116-.801 1.12.78 3.767-.616 4.007-.057-1.71-2.607-2.122-2.541-.099 1.167 2.7-2.593 3.696-1.656 6.082 1.955 2.186-.888 3.66-1.125 5.94.43 2.825-.38 5.623-2.91 7.103-.985 2.885.59 5.536 3.514 6.031 2.43-2.14 1.71 1.382 3.07 2.608 1.828 1.31 3.24 3.946 1.94 6.083-.9 2.176-1.985 4.267-2.96 6.253.999 1.813 1.728 3.667 2.114 5.71.992 2.09-1.964 4.082-1.13 6.145 2.128-1.594 4.176.674 6.382.751 2.523.758 3.594-2.692 5.724-2.01 1.412-.718 3.803-1.045 4.285 1.384.842 2.688 3.954 2.774 5.663 3.965 1.706 1.598 4.927-1.234 6.026 1.709 1.915 1.985 1.584 4.827 2.523 7.154.837 2.285 2.624-.634 3.69.658-.186 1.91.86 3.906 3.134 3.5 2.105-.91 3.749 2.596 5.938.716 1.2-2.007 3.978-2.04 4.749.39.98 2.084 3.526 2.915 4.592 4.902.224 1.756-2.736 2.6-2.535 4.58-.514 2.885 3.08 3.646 4.441 1.397.302-2.238 1.75-1.062 2.946-.362 2.206.707 4.12 1.76 5.855 3.325 2.493 1.16.843 4.332 2.713 5.862 2.52 1.023-.202 3.362 1.99 4.607 2.696 1.86-1.29 4.18.16 6.035.273 2.133 1.953.985 3.157.614 2.323.094 5.13-.194 5.705-2.925 1.845-1.705 5.387-.453 6.71 1.475 1.762 2.633 2.384-1.618 2.72-2.988.508-2.774 4.12-3.52 6.324-2.342 1.818-.285 1.22 1.953 2.438 2.018 1.454-1.075 2.762.892 4.18-.36-.25-1.73 1.609-4.387 3.416-2.58.619 2.16 3.874.227 3.707 2.573.666 1.079 2.756-.326 3.072 1.718-.52 1.08-.543 2.654 1.208 3.119.4 3.018 3.536 1.553 5.569 2.088 2.22-.063 4.514.163 6.485 1.296 2.611.803.949 3.812 2.197 5.571 1.466.296-.478 1.881.826 1.709 1.994-1.646 4.597-.011 6.685.16.34-1.724 2.678-3.947 4.078-1.961.633 2.292 2.823.325 2.398-1.293 1.274-.456 2.952-.525 2.532-2.631-.413-2.109 1.28-.746 2.149-1.723 1.66.488 2.472-.468 1.28-1.748 2.184-.755 4.925.065 7.303-.768 2.982-1.376 4.918 1.843 7.476 2.478.204 1.28 1.721 1.09 1.746 2.419 2.29.831 4.142 2.334 6.571 2.967 1.27-.289 3.507-.13 4.69-1.094 1.21-3.029 3.73-.08 5.244.957 2.85-1.036 3.541 2.718 6.188 2.806 1.159 1.463 2.636 2.238 4.17 3.249 2.357 1.722-1.731 2.738-.059 4.525 1.503 2.284 5.638 1.944 5.054 5.348 2.066.436.994 4.128-1.084 2.073-1.75.968-.684 4.742 1.463 4.3.479 1.199.1 2.954 1.703 3.8 1.991 1.504 4.145 2.928 5.374 5.115 2.12.52-.482 3.761 1.522 4.441 3.01-.277 2.687 3.37 3.1 5.307-.595 3.398 2.902-.724 3.974.936 2.544 2.704-2.946 4.204-.894 6.694.31 2.699 2.866 2.047 4.737 2.623 1.804-1.332 3.112.729 4.897.895 2.065 1.478 4.7.844 4.976-1.746 2.885-.948-.36-3.001.16-4.724-2.12-1.22-.614-4.654 1.81-3.7 1.72 2.267 4.214 1.2 5.859-.462 2.86-.969 2.835 4.151 5.866 3.156 2.14-.083 3.482 3.295 5.735 2.219 1.441.852-.425 3.732.444 5.323.88 1.867.785 3.909 1.175 5.906-.28 2.854 4.408 2.65 4.357-.03 3.584.249-.213-3.341 1.8-4.212 1.725-1.04 2.295.205 1.794 1.785 1.677-.182 3.156.786 4.162 2.368 1.5 1.296 3.774-2.39 4.912.456.732 2.686 2.02-.44 3.75-.13 2.313-2.202 4.038 1.105 6.383.506 1.144 2.648 2.326-.218 3.022-1.77 1.263-2 3.812-2.2 5.909-2.138.826-1.926.385-5.861 3.707-5.515 1.232-.415 6.056-1.406 4.63 1.088.945 1.958 4.2.15 6.058.594.199 1.41 3.07 2.562 1.084 3.699-2.544 1.21 1.147 1.317.828 3.027 1.758 1.066 2.624 3.153 3.451 5.14 1.118 2.353 4.194 3.726 6.615 2.47 2.32.106 4.674 2.384 4.842 4.804 1.439 1.74 4.841 2.464 6.412.484 1.698.468 4.047-.971 4.996 1.155 2.381.193 4.675-.923 6.433-2.583 1.914.321 3.222 2.924 5.544 3.034 2.02 2.239 3.732-1.402 5.91-.127 1.951 1.679 2.543-.906 4.123-1.392 1.65.82 3.156 2.258 4.27 3.755 2.408.296 4.607 1.237 6.758 2.302 2.54.692 3.228 3.894 5.848 4.326 2.492-.204 4.564 1.291 6.81 1.888 2.27-.119 4.272 1.117 6.312 1.383 1.634-1.922 4.187 1.015 1.338 1.407-2.738.523-3.355 3.324-4.417 5.479-1.148 2.352-3.174 4.13-4.313 6.473-.784 3.115-2.517 5.93-2.914 9.153-.177 2.077-.74 4.11-2.091 5.727-1.408 1.783-3.644 2.212-5.763 2.57-3.238.355-.559 4.992-3.463 5.598-1.977-.31-5.707-1.065-5.164 2.21.745 2.573-1.056 4.885-2.642 6.7-1.475 1.613-3.356 2.762-4.683 4.553-1.533 1.828-3.591 2.98-5.66 4.065-2.093.858-2.31 3.203-2.951 5.071-.634 2.483-2.79 4.593-2.137 7.323.686 3.057.38 6.21.79 9.297.51 2.427-1.791 3.494-3.532 4.38-1.826 2.102.531 5.327-1.359 7.581-1.623 2.204-2.282 4.896-2.9 7.521-.82 2.465.17 4.93.6 7.355.193 1.94 1.709 4.369-.19 5.97-1.916 1.72-5.49 2.352-5.674 5.425.174 2.625.033 5.295-.586 7.862-.439 2.138-2.092 3.59-3.741 4.848-1.746 1.938-2.239 4.669-3.646 6.838-1.025 1.632-2.122 3.39-1.92 5.421.29 2.553-3.243 3.153-3.073 5.742-.128 2.582-1.346 4.974-.858 7.616-.242 1.966-.42 4.561 1.06 6.11 1.41 1.875 3.45 3.293 4.513 5.412 1.217 2.623.533 5.787-1.268 7.992-2 1.75-3.933 3.997-2.706 6.844.94 2.83-2.582 3.544-3.411 5.548-.115 2.165 1.995 4.168.707 6.325-1.563 1.708-2.54 3.79-3.08 6.03-1.108 2.327-.513 5.015.517 7.243 1.194 2.103 1.428 4.73-.49 6.503-2.278 1.288-2.796 3.602-2.038 5.975-.075 2.809 2.122 4.356 3.996 6.019 2.147 1.13 1.91 3.464 3.014 5.298 1.425 1.07 2.298 4.733.725 5.265-2.131-.201-3.93.94-3.95 3.05-1.761.786-3.746 1.157-5.175 2.585-1.936 2.576 3.59.276 2.479 3.201.2 2.883-3.372.072-3.56 2 1.715 1.672 1.465 4.211-.97 4.994-2.164 1.605-3.638-3.383-5.777-1.146-1.79 2.406 4.269 2.453 1.897 4.906-2.311.646-2.981 3.53-5.248 4.177-1.53 1.154-2.873 1.676-4.88 1.261-1.658-1.217-3.478-.518-5.322-1.039-1.744 1.26-4.103.905-5.903 2.391-1.44 1.576-2.477.221-2.365-1.406-1.562-1.637-4.468-.242-6.378-1.77-.277-2.067-.266-5.268 1.54-7.008 1.49-2.863-2.692-.385-3.973-1.173-2-1.803-4.452-1.771-6.664-.43-2.157 1.551-4.367-.166-6.495-.723-1.418-1.6-2.61-.915-4 .312-1.862-.369-2.117 1.07-1.556 2.45.001 2.006 3.456 4.482.693 6.137-1.935-.297-2.587 1.355-3.988 2.205-2.19-1.002-3.32 1.047-2.348 3.006.753 2.596-2.413 1.29-3.049 2.808.051 2.835-3.504 2.521-3.665 5.138-1.24 2.999 2.183.795 3.718 1.247 2.39.318 4.778-.242 7.207-.245 2.161.324 4.461-3.303 5.858-.618 1.378.123 2.856.41 1.883 2.316 3.01.45-.266 4.663-2.29 4.088-2.85-.26-.85 2.41-2.063 3.752-1.987.157-3.508 1.62-5.192 1.906-3.02-.81-1.67 2.328-1.13 3.839-.854 1.45.523 3.18-.325 4.257-.826 1.217-1.558 2.278-2.79 2.985-2.329 1.036-3.897 3.038-5.818 4.659-.627 2.104-3.353 2.681-4.02 4.49 2.385.918.338 1.872-1.067 2.843-1.77 2.494-4.542 3.966-7.304 5.127-2.175-.087-2.31 1.7-1.809 3.268-.837 1.937-4.354.501-4.99 3.03 1.03 1.496-1.403 2.017-.662 2.712 1.87 1.06 2.556 3.782.167 4.753-2.164.242-4.04 1.394-5.121 3.318-1.183 1.9-2.649 3.938-5.1 4.093-2.656.615-4.825 2.469-7.572 2.878-2.019 1.546-4.788-.153-6.38 1.69-2.087 1.433-3.281 3.763-5.198 5.372-.236 2.392 2.813 4.323 2.887 6.97.579 2.094.459 4.549-.561 6.46-1.87 1.53-1.372 4.027-2.316 5.948-1.768 2.521 2.822 2.983 2.312 5.214-1.472 1.98-2.548 4.757-5.346 5.07-2.471-.28-1.58 2.691-3.62 3.05-1.33 1.194-2.238 3.478-4.621 3.68-2.805 1.16-6.032 2.088-7.882 4.698-1.578 2.33-4.027 3.798-5.991 5.758-1.962 1.753-3.558 3.852-5.651 5.456-1.178 1.466-5.132 2.547-3.466 4.9.83 1.814 4.813 3.183 2.5 5.09-2.802 1.396-3.779 4.657-4.7 7.424-1.292 2.245-4.454 3.87-3.886 6.796 1.384 1.9 1.683 3.999-.391 5.552.204 1.237 3.46 2.173 4.622 3.453 1.469 1.907 4.444 2.544 4.803 5.198.056 2.304-2.035 4.06-2.718 6.223-.882 1.8-1.213 3.315-2.146 5.064-2.36 1.756-.106 4.35.463 6.399-.01 2.611-2.698 1.37-3.832 2.962-2.14-1.116-4.001.576-6.2 1.04-2.328 1.315-4.93 2.353-6.694 4.444-1.41 2.01 1.328 3.318 2.48 4.574 2.902 2.008-.914 3.96-1.66 6.274-1.667 1.594.153.992 1.352.308 2.179-1.887 4.73.42 6.868-.54 1.654-1.848 4.635-1.713 6.243-.063 2.698.314 5.57-.547 7.33-2.683 2.327-.557 2.14-2.615 2.514-4.395 1.454-1.034 2.926-1.737 3.978-3.24 2.612-1.212 4.747-3.214 7.203-4.687 2.686-.64.64-5.315-1.143-4.819-1.669 3.41-3.418-1.074-4.05-2.775-1.94-1.715 2.577-3.372-.314-4.43-3.796-.46-.858-4.167-.173-6.237 1.483-2.44 4.802-3.128 5.646-6.072 1.544-1.663 3.878-2.84 6.205-2.762 2.626-.048 5.308-.017 7.829-.91 2.963-1.136 4.664-4.098 7.325-5.687 2.128-1.702 4.968-1.839 7.555-1.583 2.442-.173 4.992.894 7.307-.266 1.791-1.063 3.807-.235 5.652.2 2.866.31 5.642 1.126 8.365 2.038 1.893 1.039 4.014 1.491 6.032 2.178 2.878 1.742.949 5.138 1.036 7.701-.082 2.496-3.733 2.53-4.123 4.752.803 2.515 3.01 4.508 4.825 6.372.907 2.644 3.902 4.063 3.841 7.062.01 2.39-2.433 3.723-3.585 5.598-1.979 2.08-2.175 4.812-1.758 7.483-.323 2.59-2.506 4.494-1.381 7.212 1.042 2.544 4.554.904 6.318 2.28 1.44 1.469 5.425-.199 5.096 2.593.502 2.264-4.127 3.545-1.188 5.028.325 1.897-3.143 5.675.763 5.82 1.789-.176 2.828-2.545 4.77-2.475 1.216 1.789 2.685 4.35 4.762 5.943 1.364 1.792 2.737 3.623 4.535 4.994 1.821 1.509-1.27 3.465.656 4.4 3.045.366 1.204 3.175 1.944 4.926 2.326 1.859-1.684 1.686-1.963 3.587-.969 2.386-1.381 5.19-3.346 7.053-2.385 1.709-5.147 2.942-7.956 3.81-1.873.895-5.377-2.828-5.548.702.862 3.08-2.17 1.115-3.582.635-2.753.174-2.816 3.314-3.178 5.37-.497 2.286-.547 4.654-.001 6.93.473 1.969.5 3.95.788 5.94 1.476 2.034 3.125 3.939 4.727 5.884 1.639 1.38 3.855.519 5.686 1.333.412 1.656 1.47 4.926 4.141 3.76 2.569-1.393 3.297 1.859 5.366 2.552 1.052 1.917-2.345 3.56-1.624 5.862-1.622 2.357 2.015 3.248 1.589 5.358-.857 2.097.157 4.257.331 6.38.534 2.483 2.532 3.812 4.92 4.252 2.585-.283.478 2.066 1.943 3.107 1.827-.227 3.622.258 4.706 1.95 1.53 1.931 1.03 5.501 3.731 6.353 2.168 0 2.847 2.008 4.6 2.569 3.914.524-.847 4.241-.871 6.318.854 2.75-3.845 2.52-2.946 5.247.587 1.976-1.136.97-2.027 1.258-1.606 2.384 1.019 5.014 1.398 7.454.419 1.606 1.211 6.718-1.594 5.434-2.748.599-2.667 4.907-4.908 5.886-.769-1.312-1.9-3.59-3.595-1.457-2.196 1.303-4.848.878-7.129 2.157-2.468-.452-.724 2.171-2.563 2.63.878 1.375-.997 1.626-1.004 2.763-1.435 1.36-3.84 1.26-5.763 1.518-2.682 1.38 2.137 2.616.07 4.314-1.815.88-4.78 2.302-6.5.55-.772-2.663-3.569-2.149-5.48-3.16-2.415-2.717-4.246.89-6.049 2.247-2.117-.432-4.19-.625-6.137.623-.752 2.62-3.866 1.923-5.367 3.756-2.285 1.774 1.185 2.642 1.039 4.775 2.2.743 2.707 2.903 2.134 4.987-.412 2.442 1.56 4.712 4.112 4.099 2.044-.465 5.681.118 5.947 2.54-1.103 1.66-.557 3.073.364 4.615.876 2.1.141 4.2-1.068 5.754 2.183 1.111-.568 3.1.705 4.8 1.891.61 2.995 2.59 4.974 3.273 2.794.495 4.264 3.145 6.46 4.617 2.447.984 5.56 2.591 8.162 1.196 1.62-2.218 4.193-.71 6.122.194 1.781 1.176 4.35 1.432 4.612 3.958 2.735.4 1.344 2.83-.175 3.87-1.773 1.797 2.236 3.1 1.364 5.425.016 2.158-.964 4.758 1.038 6.422 2.656 1.002 3.305 3.44 3.535 5.98 1.49 2.903-2.922.85-4.249.462-2.51-1.128-5.427-.062-6.924 2.168-1.994 1.948-2.856 4.844-.992 7.167 1.395 1.846-1.486.573-1.337 1.718-.771 1.705-1.637 3.43-1.708 5.462-1.724.29-1.943 2.15-3.164 3.164-2.705-.112-3.377 2.694-5.318 3.947-.875 2.362-.502 5.393.935 7.539.613 2.846 4.23 3.164 4.69 5.846.986.831 4.996 3.281 1.669 3.587-1.922.23-5.184 1.496-3.751 3.972 1.08 2.078-2.195 4.643-.657 6.338 1.982.438 1.987 2.085 2.925 3.452 1.795 1.515 3.866 3.348 2.985 5.984 1.351 1.553 4.023 1.706 4.516 4.016.986 1.795.563 4.545 2.444 5.68 2.106 2.117 4.224-.35 6.599.04 2.186 1.383 4.719 2.409 6.704 3.953.968 3.478 3.63-1.56 4.957 1.128 2.927.526 3.292 4.425 6.1 5.101 2.741-1.405 3.89 2.252 5.699 3.606 2.017 1.483 4.66-.105 6.907.635 1.82.994 1.225 5.134 4.286 3.755 2.403-1.39 4.708 2.333 6.79.586 1.087-2.946 4.544-.339 6.507-2.345 2.184-.99 4.317-2.394 6.84-1.907 1.312-1.698 3.558-1.782 5.707-1.319 2.84 1.354.92-2.95 3.319-2.653-.109-2.289 2.575-1.256 3.815-.794 3.675.302-1.237 2.82.914 4.527-1.423 1.681-1.134 4.15.516 5.679 1.14 1.824 4.38 2.292 4.239 4.79.078 2.265-1.216 4.495-2.647 6.025-2.793.514-3.247 3.253-2.61 5.585-.452 2.62-3.623 3.557-5.263 5.434-.648 2.701-3.5 2.636-5.358 3.748-1.385 2.247-1.366 5.04-2.35 7.464-1.968 1.385-4.426 2.398-5.84 4.396-.838 2.982 1.084 5.768 1.762 8.581.229 2.443 2.338 4.198 2.428 6.6a4.285 4.285 0 01-.293-.147 2.103 2.103 0 01-.87-.903c-1.914-.971-3.39.802-4.793 1.66.37 1.986-.401 4.422-2.89 3.32-.648-.214-1.223-.155-1.518-.033-.01-.03-.014-.052-.02-.074-.048-.293-.203-.537-.376-.772-.163-.333-.237-.721-.444-1.026-.17-.2-.363-.366-.616-.45-.2-.159-.439-.045-.665-.026-.331.143-.607.414-.878.657-.373.487-.912.82-1.266 1.321-.416.623-1.083 1.023-1.485 1.657-.136.247-.237.537-.212.824-.037.223.046.419.154.609.314.59.342 1.217.426 1.861a4.225 4.225 0 00-.27.23c-.244.244-.45.547-.606.924-1.727-.477-3.773-.956-5.141.594-.695 1.286 2.076 2.573.069 3.684-1.215 1.419-2.573-.079-1.446-1.4.41-2.297-2.132-.206-3.212-.372-1.745.277-3.384.453-5.124.144-2.424.43-2.944 3.003-4.15 4.71-1.644 1.406-4.184.31-6.029 1.434-1.554.844-2.166 2.905-2.801 4.491-.693 1.802-.208 3.785-.285 5.672.123 1.805.588 3.963-.413 5.544-2.052.97-1.16-3.34-3.7-2.022-2.31-.142-3.911 1.468-5.744 2.513-1.552 1.392-3.205-.467-4.81.224-1.577 1.408-3.962 1.49-5.273 3.2-1.048 1.154-1.14 2.425.088 3.477.23 1.642-2.061 1.983-2.055 3.734-1.768 1.096-1.21 3.3-2.245 4.792-.935 1.196-3.495.832-2.957 3.048-.598 2.495-4.2-1.298-4.292 1.493-.625 1.65-2.66.343-3.947.717-1.911.106-4.382 1.209-5.458-1.036-1.78-1.786-4.17.342-3.948 2.458-.49 1.956-.228 4.132-1.404 5.86.127 2.018-1.002 3.658-3.125 3.712-1.67.612-3.926 1.996-2.756 4.072.613 2.298-1.929 2.886-3.639 2.511-1.398.351-2.232 2.27-4.126 1.986-2.024-.036-2.4 3.306.094 2.633 1.993.19 3.606-1.665 5.506-.584 1.8.094 4.862-1.37 5.371 1.493.208 2.264-3.038 1.912-3.24 3.801-.545 1.278-1.816 2.989.29 3.546 1.656.195 1.677 2.38-.145 2.072-1.816.201-3.754 1.452-3.813 3.444.748 1.27.047 2.224-1.404 1.89-.595.89-1.38 1.962-2.244.648-1.622-.951.158-4.183-2.811-3.831-1.934-.88-3.56.196-5.385.716-.965.898-.641 2.664-2.318 2.703-1.156 1.679-3.504 1.05-5.275 1.281-1.724-.272-3.29-.41-4.25 1.307-1.71-.519-3.604-.49-4.608 1.306-2.404.153-2.98 2.606-2.299 4.476-.707 1.534 2.628 4.308-.468 4.688-1.31-1.194-4.494.131-4.212-2.648.258-2.304-2.76-2.308-4.336-2.707-1.606-1.332-3.561-1.758-5.356-.553-1.615 1.166-3.549-.216-5.273.21-2.378.407-3.35 2.908-3.386 5.06.827 1.596-1.194 4.033.219 4.974 1.728-.328 2.87 1.495.804 1.994-2.073-.255-4.025-1.038-6.126-.491-1.175.174-4.483.862-3.51-1.283 1.403-.679 4.006.51 4.634-1.29.377-1.821.11-4.46-2.159-4.775-1.82-.722-3.655-.648-5.398.191-2.214.942-3.318-.933-4.381-2.376-1.843-.302-3.904 1.402-5.665.108-1.203-1.512-3.6 1.728-3.514-.605 1.228-1.108.57-2.566-1.106-2.095-1.482 1.35-4.195.655-5.026 2.688 1.58.485 3.624.525 3.339 2.726.434 1.192 3.832.31 2.407 2.041-1.769.895-4.156-2.197-5.102.53-2.246.172-.75 3.79-3.097 3.574-1.583-.332-3.57-.18-4.464-1.81-.594-2.11-2.933-2.369-4.616-2.176-1.356-1.572.162-3.869 2.043-4.01 1.633.075 3.17-1.52.946-2.138-1.526.141-4.292.127-2.93-2.187-.27-2.789-3.357.026-4.94-.839-1.619-.873-2.18-2.91-4.362-2.32-1.697-1.368 1.71-3.758-1.08-4.644-1.93-.797-4.002-.058-5.957-.618-2.069-.633-1.501 3.042-3.389 2.164-1.864-1.22-4.477-1.926-5.472-4.063.194-2.678-2.944-2.911-3.992-.74-1.947 1.068-3.945-.433-5.648-1.278-1.19-1.03-1.572 1.631-3.013.233-1.588-1.435-2.977.823-4.814-.124-1.77-.447-3.985.117-5.22-1.602-.791-1.585.444-3.63 1.612-4.758 1.61-1.9.066-3.757-1.713-4.623-.537-1.604 1.969-2.418.997-4.258.527-1.799-.24-3.445-1.183-4.928-1.21-1.765-3.562-3.596-5.72-2.227-2.085.706-3.947 1.614-5.753 2.883-1.859.531-3.967 1.55-5.874.6-1.563-1.157-2.902 1.776-4.48.189-2.176.32-4.4-.749-6.501.322-1.64-.243-3.508-.449-5.162-.794-1.693-.617-3.119-1.64-3.435-3.583-1.802-1.048-1.978-4.258-.268-5.462 1.844-.533 3.11-2.128 4.962-2.531 2.157-.14 4.294.795 6.403-.092 1.788.2 3.49.815 4.733-.99 2.097-.548 3.449-1.864 4.282-3.775.758-1.546 4.438-1.584 3.133-3.703.292-1.561.365-4.769-2.103-3.38-1.797.646-3.036 2.275-4.876 2.857-2.047-.214-3.06-2.714-5.037-3.427-1.374-1.327-1.07-2.886.195-4.072-.312-1.854-2.98-1.406-4.419-1.44-1.486-1.121-3.636.724-4.652-1.51-.324-1.59-2.504-2.665-2.507-.27.283 1.649.5 3.188-.946 4.281-.82 1.692.956 3.063.597 4.868 1.281 1.345 3.872.348 4.583 2.6.722 1.56.542 3.408.477 5.097.01 1.926-2.153 2.302-3.53 2.974-1.491.943-3.268-.05-4.698 1.213-2.221.444-1.046-3.833-3.68-2.287-1.558-.496-3.108-2.193-4.883-1.373-1.123 1.553-2.947 1.516-4.515 1.78-1.23 1-3.791 2.065-2.694 4.085 2.104-.208 2.993 1.975 2.553 3.605-1.856.282-3.45-1.266-5.153-2.018-1.345-1.416-3.11-2.21-4.783-3.136-1.724-1.256-4.129-2.272-4.72-4.498-.17-3.304 1.122-6.478 1.083-9.786.119-2.313-.393-4.651-1.673-6.61-1.04-1.806-1.937-3.772-3.485-5.215-2.055-1.208.272 2.382.461 3.236 1.434 2.135 2.531 4.57 2.777 7.142-.394 2.36.714 4.787-.235 7.082-.515 1.754-.673 3.662.134 5.363.843 1.78 2.58 3.006 4.218 4.048 1.87 1.177 4.365 1.952 5.53 3.934 1.368 2.103-.791 3.713-2.865 2.97-2.996-.12-5.978-.546-8.98-.49-3.384.104-6.765-.087-10.148-.303-2.235.19-4.625-.938-5.684-2.953-.546-2.094 1.945-3.269 2.527-5.077 1.225-1.57.461-3.598-1.174-4.508-2.08-1.296-4.456-2.009-6.781-2.702-2.271-.688-4.64-.171-6.953-.142-1.994-.256-3.678 1.403-5.605.922-1.801-.064-3.471.455-5.251-.497-2.762-.722-5.571-1.343-8.428-1.533-1.854.138-3.709-.092-5.545-.183-2.198.251-4.494-.115-6.385-1.29-1.774-.799-3.69-2.085-3.857-4.218-.59-1.98.369-4.322-.937-6.06-.993-1.31-2.132-2.729-3.713-3.304-2.81-.779-5.78-1.41-8.689-.78-2.647.193-5.189 1.157-7.856 1.087-1.927 1.293 1.105-.772 2.02-.746 2.235-.652 4.44-1.535 6.804-1.572 1.745-1.28 4.441.053 5.767-1.834-.147-1.142 1.873-3.822-.65-2.93-1.355 1.213-3.048 1.415-4.667 1.023-1.03 2.119-3.784.056-4.926 1.934-1.747.61-2.882 2.06-4.624 2.563-1.625.603-3.4.72-4.935 1.353-1.057 1.374-3.706.321-3.636 2.727-1.26 1.483-2.13 4.053-4.494 3.82-2.156-.722-2.873 1.217-3.397 2.816-.614 1.992-.686 4.572-3.258 5.187-1.687.869-3.229 1.964-4.88 2.85-1.185-.167-3.832.826-3.327 1.832 2.23.193 4.31-.811 6.228-1.809 1.643-1.187 3.301-2.36 4.802-3.71 1.914-1.209 3.09-3.157 4.754-4.653 1.796-.965 3.175-2.402 3.987-4.248 1.67-1.134 3.603-1.877 5.104-3.313 2.324-.74.088 2.268-.938 2.62-1.385 1.47-3.097 2.521-4.702 3.746-1.51 1.081-2.42 2.882-4.107 3.774-1.423 1.464-2.592 3.141-4.343 4.242-1.587 1.177-3.165 2.27-4.865 3.243-1.195 1.86-4.052 1.369-5.034 3.36-.821 2.094-3.001 2.268-4.923 2.461-1.83.468-3.386 1.603-5.046 2.443-1.578.673-2.332 2.432-3.028 3.886-1.167 1.354-2.863 2.026-3.664 3.735-1.857 1.24-2.97 3.28-3.89 5.271-.503 1.733-1.628 3.449-3.67 2.301-1.82.03-3.355-.763-4.972-1.127-1.833.595-3.806.45-5.586 1.306-1.82.52-3.008 2.128-4.338 3.35-1.54 1.843-3.665 3.01-5.73 4.17-2.434.211-2.738 3.412-4.881 3.78-2.281-.926-2.013 2.285-3.362 3.209-1.396 1.698-2.195 3.77-3.375 5.602-1.2 1.76-2.496 3.479-3.78 5.168-.879 1.274-1.053 2.844-2.429 3.185-.255 1.429-1.08 4.702-2.94 3.162.104-1.769-3.624-2.643-.985-4.224 1.859.16 2.885-2.502.432-2.435-2.027-.556-5.067.937-3.218 3.27.177 1.662-.804 3.75.718 5.014 1.183 1.756 4.534-.839 3.556 2.241.226 2.148-1.864 3.11-2.642 4.805-.697 2.908-.246 6.076-1.658 8.811-.184 1.734-3.036 4.477-3.556 1.515-.647-1.778 3.238-3.903.93-4.721-1.896-.213-2.56 2.273-2.61 3.79.015 1.95 1.561 3.524 3.446 3.864 2.185.488 2.401 3.712 1.716 5.125-1.5-.644-3.168-.21-4.462-1.322-1.226.99-.572 3.487-1.22 5.058-.598 1.979-3.056 2.406-4.252 3.973-1.486.813-1.337 2.29-.041 3.065-.536 2.686 2.193 4.076 4.508 3.504 1.97-.21 4.224 1.15 4.626 3.163.37 1.868.275 3.802-.014 5.683-.053 2.338-.245 4.632-.426 6.958-.174 1.332.593 4.528-1.23 4.506-.229-1.224-1.102-3.901-2.73-2.423-1.43 1.459.41 5.415 2.25 4.3 1.536-.72 1.555 2.864 1.545 3.978-.182 1.615.058 3.19.497 4.738.396 1.93.181 3.922.631 5.847.47 1.987.886 4.6 3.158 5.317 1.55.55 3.544 1.252 3.955 3.02-.01 2.071 1.97 2.715 3.055 4.23a81.87 81.87 0 002.826 5.055c.272.46.396.923.42 1.387.01.116.01.232 0 .35-.831.129-1.662.231-2.49.348-.978.152-1.923.233-2.838.589-1.11.302-2.177.19-3.15-.444-.838.591-2.013-.19-2.722.58-.656.885-2.192 1.031-2.838.105-.323-.867-1.296-.703-1.696-1.37-.611-.609-1.23-1.194-1.793-1.877-.737-.473-1.112-1.122-1.038-2.013.055-1.594-1.656-1.077-2.458-.363-1.097.586-1.227-.941-2.296-.768-1.041-.592-1.03.908-2.017.736-.118 1.342-2.062.728-2.322-.276-.214-.825-1.767-1.674-2.271-.822-.918.635-1.97 1.498-2.011 2.731-.073 1.166-1.185.738-1.996.776-1.106-.099-2.194-.38-3.26-.688-.4-1.14-1.474-.19-1.63.59-.058 1.215-1.068.377-1.799.297-1.536.019-1.073 2.053-1.825 2.659-1.101-.02-1.872.924-2.91 1.156.168.964-.537 1.62-1.438 1.59-.723.817-2.038 1.451-2.834.375-1.005-1.11-2.744.01-3.68-1.076-.538.663-1.46.136-1.966.764-.99.437-1.278 1.854-2.456 1.774-.747.592-2.522-.068-2.43 1.238-.182.697.041 2.054-1.094 1.618-1.157-.72-1.654 1.216-.711 1.805.751.719 1.132 1.58 1.417 2.561.79.564 2.013 1.807.841 2.618-.86.511-1.455.125-2.101-.465-.981-.315-2.136-.183-3.19-.352-1.169.07-2.316-.202-3.386-.657-.51-.584-1.214-.187-1.736-.368-.675-.965-1.594-1.139-2.688-.941-.63.813-1.655 1.362-1.584 2.558.106 1.392-1.27 1.532-2.323 1.3-1.462.175-2.068-1.765-3.527-1.549-.989.264-2.153.077-2.4-1.073-.935-.268-1.202-1.259-1.884-1.93-.822-1.135-2.396-1.776-2.599-3.292.728-1.222-.938-.826-1.625-.822-1.074-.233-2.21-.198-3.217-.73-.716-.882-1.807-.73-2.846-.928-1.093-.22-1.517-1.157-1.77-2.116-.81-.58-2.284.061-3.102-.866-.57-.804-1.526-1.102-2.343-.601-1.347.212-2.005-1.313-3.187-1.327-.741-.605-1.813-.549-2.655.032-.743.82-1.938.818-2.794 1.449-.83.975-2.063.312-3.005.889-.476-.742-1.402-.55-2.057-1.03-1.163.124-2.216.635-3.428.557-.582.693-1.951.269-1.718 1.484-1.04.43-1.202 1.64-1.494 2.615-.745.613-.401 1.955-1.57 2.106-1.05-.069-2.434.778-1.666 1.883.016 1.441-1.675-.09-2.146.945-1.032.302-1.846 1.042-3.002.945-.623-1.062-1.227.127-2.084.065-.803.87-1.723.048-2.567-.24-.842-.416-1.281-1.48-2.268-1.751-.95-.723-2.215-1.832-1.905-3.126-.49-1.067-.627-2.262-1.204-3.291.413-1.075-.197-2.188-.528-3.228.17-1.019-1.316-.96-.828-1.979-1.048.142-.428-1.19-1.368-1.059-.509.238-1.025 1.042-1.814.643-.93-.688-1.83.717-2.808-.12-.96-.68-1.578-1.736-2.496-2.472-1.005-.022-2.05-.57-2.71-1.316-.826-.733-1.047-2.078-2.356-2.108-1.084-.141-2.165-.215-3.24-.35-1.07-.238-2.056.434-3.11.032-.944-.37-1.738-1.112-2.86-.83-.817.617-1.329.01-1.776-.714.515-.976-.96-1.333-.578-2.353.364-1.031-.191-2.258.783-3.084.006-1.04 1.22-1.921.544-2.865.81-.431.63-1.495 1.495-1.822.4-.724 1.012-.31 1.608-.44.612-.766 2.15.41 2.158-.573.382-1.188-.538-1.546-1.486-1.84-.976-.185-2.282.506-2.98-.418-.778-.203-1.837-.91-1.642-1.812.958-.59 1.207-1.445 1.226-2.508-1.21.252-2.344-.342-3.262-.94-.98-.313-1.95-.84-3.019-.377-.73.632-1.729-.034-2.514.592-.457-1.06-1.592-.794-2.49-.987-.729.36-1.533.312-2.405.24-.384-.948-1.323-.613-2.087-.974-1.505.132-1.774-1.315-2.224-2.393-.803-.786-1.985-1.51-3.138-1.079-1.219.196-2.252.917-3.363 1.33-.813-.011-1.979.875-2.411-.262-.419-.837-1.18-.9-1.712-.1-.625.767-1.185 1.683-1.318 2.687-.457 1.172.703 1.786.658 2.912-.066.962-.771 1.101-1.507 1.377-.968.412-3.03.408-2.974-1.101-1.063-.054-.624-1.144-1.353-1.615.057-1.07-.974-1.88-.55-2.985-.507-.96-.374-2.318-1.504-2.979-1.047-.616-1.546-1.545-1.301-2.77-.652-.497-.25-1.75-1.297-1.703-.674-1.014-1.664.084-2.538-.6-1.29-.366-.66-1.657-.413-2.54.438-.85-.323-.885-.972-.993-1.05-.118-2.39-1.024-3.05.208-.914-.172-1.96-.524-2.935-.229-.917-.21-1.86.395-2.678-.165-.744.445-1.335-.247-2.09-.145-1.017.01-2.028-1.465-2.933-.92-.372 1.14-1.362.781-2.233.808-1.105-.307-1.43 1.262-2.46.746-.5.792-1.514.975-2.067.147-.958-.776-1.994-1.503-2.765-2.474-.904-.853.02-1.77-.366-2.76.433-.88-.693-.923-.729-1.707-.494-.49-1.052-1.067-1.594-1.531-1.134-.317-2.021-1.02-2.66-1.98-.827-.918-1.871.01-2.783.218-.926.375-1.9 0-2.792-.292-1.004-.01-1.508-1.273-2.475-.76-1.136-.252-2.272.167-3.41.226-.06-.863-.902-.844-1.41-1.319-.481-.875-1.333-1.283-2.336-1.307-.458.86-1.469 1.05-1.914 1.87-1.18.505-2.024-.791-2.815-1.455-.888-.707-1.651-1.828-2.864-1.938-1.25-.068-2.03-1.14-3.101-1.622-.362-1.146-1.4-.311-2.239-.49-.547-.854-1.501-.512-2.312-.85.26-.719-.422-1.169-1.042-1.184-.76.531-1.187-.831-1.86.028-.926-.53-1.493.961-2.373.514-.662-.72-1.661-.078-2.425-.622-1.402-.425-1.488-2.098-2.957-2.412-1.018-.573-2.166-.23-2.964.54-.661.103-1.32-.077-1.687.701-.528.912-1.976 1.02-2.245 1.921-.075.957.653 1.918.177 2.885.224 1.094.327 2.15.197 3.265-.608.135-.938.453-.774 1.095-1.29-.296-1.698 1.343-.768 2.053.81-.061 1.558.886.674 1.384-1.167.125-1.829 1.17-1.437 2.272.687-.89 1.127.324 1.868.44.357.8.943 1.624 1.211 2.504.896.73.116 2.13.702 3.087.267 1.025-1.213 1.868-.523 2.652.146 1.164-1.172.716-1.888.391-.62-.889-1.827-.575-2.407.035-.918-.226-2.003-.302-2.677-1.003-.728.108-.923-.612-1.395-.825-.864-.265-.313.502-.606.908-.657.79-1.912.752-2.766.315-.971-.24-1.93.019-2.89-.342-.829-.451-1.644-.495-2.597-.38-.019 1.03-1.218 1.074-1.991 1.285-1.03.217-2.049-.456-2.698-1.213-.516.051-1.263.798-1.762 1.245-.798.325-1.97.01-2.898.385-.91.475-1.803.284-2.53-.483-.792-1.007-1.387.42-2.298.064-.28-.933.15-1.978-.362-2.844-.676.303-2.083.103-2.167-1.09-.162-1.523-1.893-.83-2.22.248-.788.844-2.246.62-3.021 1.631-.348.865-.077 2.097-.75 2.992-.39.96-1.735.624-2.08 1.622-1.039.331-2-.417-2.597-1.275-.605-.69-2.048-1.74-1.177-2.677.29-.802-.611-1.656-.95-2.385-.913-.183-2.077.28-3.106 0-.851-.092-1.32-1.216-2.258-1.376-.826.115-1.247-.46-1.869-.86-.938-.38-2.114-.96-3.025-.196-.806.278-.13 1.652-1.102 1.191-1.248-.042-2.386.563-3.246 1.44-.484.855-1.268.465-1.993.751-1.06.529-1.735-1.194-2.835-.73-1.082.445-1.78 1.53-2.808 2.119-.815.602-2.006.832-2.854.168-.918.619-1.244-.786-2.166-.255-1.188-.118-.318 1.071-1.164 1.485.15.954-.793 1.004-1.502 1.058-.91-.036-1.792-.442-2.598-.86-.854-.8-1.878.11-2.839-.258-1.388-.298-1.056-1.711-.995-2.736.034-1.289-1.286-1.161-2.083-1.59-.928.087-2.355.44-3.057-.585.173-.778-.022-1.69-.3-2.526-.947-.158-.743-1.295-1.533-1.677.27-1.029-.96-1.157-1.404-1.883-.69-.588-1.877-.862-1.775-1.98-.131-1.347 1.528-2.428.752-3.689-.665.618-1.63.471-2.305 1.062.306 1.236-.968 1.017-1.622 1.61-1.157 0-1.637-1.329-2.746-1.447-.781-.522-1.487-1.2-2.219-1.805-1.14-.204-.33-1.68-1.41-1.915-.967-.181-2.746.762-3.039-.433-.571-.457-1.35-.896-1.944-1.511-.626-1.144-2.445-.749-2.757-2.168.156-.829-.52-.5-.844-.095-.346.732 0 1.605-.538 2.268-.604 1.224-2.1.55-1.937-.732-.482.714-1.765.425-1.616 1.489-.906.44-1.242 1.41-1.78 2.121-1.003.633-1.56 1.83-2.687 2.27-.95.379-1.423-1.078-2.434-.82-.86-.233-1.761-.158-2.378.54-.768 1.126-1.494-.14-2.185-.521-.934-.356-1.876-.87-2.751-1.287-.618-.713-1.297-1.756-2.341-1.7-.854.102-1.033 1.516-1.937 1.87.292 1.03-1.624 1.303-.898 2.316.736.605-.092 1.417-.697.637-1.37-.442-1.054 1.46-1.909 1.695-.951.32-2.754-.545-1.966-1.657.827-.753.299-1.639-.582-2.009-.939.287-2.405.295-3.077-.706.745-.729.246-1.649-.133-2.39.074-1.1-1.121-1.947-2.147-2.105-.021-1.04-.619-2.172-1.589-2.623-.458-.856-1.508-.281-1.96-1.049-.74-.229-1.299-.623-1.66-1.396-.01-.859-.488-1.548-1.426-1.725-.908-.425-1.707.296-2.607.34-1.116-.288-2.226-.555-2.8-1.697-.008-.783-.689-.99-1.027-1.51-.582-1.017.529-1.435.798-2.212.487-1.074.226-2.373.046-3.48-.57-.776-1.163-1.525-1.667-2.328-.277-.791-.361-2.153-1.532-1.942-1.348-.198-2.412.768-3.545 1.301-.544.969-1.704.914-2.672 1.327-.855.6-1.595.099-2.5.072-1.227.04-2.432-.68-3.582-.104-.972-.156-1.847-.4-2.776-.7-.89-.563-1.992-1.482-2.92-.343-.977.031-2.06 1.123-2.85.03-1.174.239-1.85-1.141-3.008-1.05-.729-.278-1.143-1.233-2.002-1.473-1.031-.326-1.53-1.335-2.085-2.07.158-1.196-1.424-1.362-2.291-1.623-1.215-.137-2.451-.233-3.656.032-.753-.11-1.401-1.005-1.967-1.567-.983-.395-1.782-1.213-2.868-1.362.062-1.134-1.23-.913-1.96-.514-.713.155-1.436 1.673-2.053.885-.345-.888-.22-2.072-1.267-2.64-.9-.907-2.577-.487-3.588-.44-.75-.65-1.887-1.161-1.777-2.351-.571.486-1.21.356-1.752-.095-.54-1.14-1.831-1.591-2.862-.837-.913-.344-.882 1.053-1.824.688-.845.78-1.506-.355-1.975-.963-.872-.658-1.606-1.504-2.576-2.03-1.063-.077-1.369-.95-1.226-1.919-.118-.916.288-1.725.884-2.381.366-1.18 1.373-1.63 2.282-2.329 1.19-.5-.826-2.147-1.22-.974-.9.624-2.19.219-3.077 1.028-.65.03-1.465-.18-1.768.716-.386.949-1.92 1.25-1.456 2.478-.165.985.737 2.053-.157 2.94.41.927-.696 1.776.054 2.574.236.797-.034 1.657-.128 2.464-.292.96-1.64 1.375-2.492.974-.954-.442-1.99-.572-3.027-.658-1.04-.22-2.127-.466-3.057-.992-1.05.153-2.105-.354-2.882-1.115-.676-.646-.542-1.618-.981-2.387-.29-1.07-1.358-1.644-1.753-2.69-.818-1.117.337-2.01 1.093-2.727 1.098-.01 1.738-1.053 2.626-1.668 1.007-.252.59-1.44 1.584-1.62.16-1.284 1.65-1.92 1.53-3.344-.303-.76-.32-1.585.377-2.21.986-.658.808-1.77.844-2.778 0-1.204.774-1.956 1.605-2.65.118-.854-.537-2.113-.08-3.105.173-.927-.055-1.94.03-2.919-.277-1.08.557-2.287-.318-3.193-.448-.808-.77-1.566-1.668-2.032-.809-1.256-2.174-.102-3.354-.328-.91.892-2.024.707-3.05.134-.733-.96-2.054-.34-2.967-1.12-.484-.873-1.474-1.211-2.318-1.687-.867-.25-1.79-.01-2.635-.31-1.049.195-2.018-.447-3.053.11-1.044.208-1.054 1.38-.49 2.092-.264.534-.592 1.224-.683 1.894-.77.59-1.183 1.866-2.373 1.59-1.018.06-2.028-.059-2.969-.442-1.117.095-1.684-1.165-1.19-2.076.28-1.018-1.065-1.604-1.03-2.396-.049-1.017 1.662-1.808.574-2.57-1.103-.035-1.468-1.21-2.348-1.63-.515-.963-1.417-.275-2.222-.135-1.087.74-.622-1.471-1.581-1.537-.897-.854-1.403.322-2.014.83-.844 1.016-1.897-.306-2.312-1.083-.206-.939-.171-1.903-.508-2.8-.592-.867-.902-1.955-1.797-2.59-.729.469-1.274-.082-1.897-.34-.868-.537-1.256-1.532-1.442-2.494-.308-.893.142-1.817.394-2.682l-.004.005zM1650 1462.722c-.155-.262.232-1.042-.415-.87a10.118 10.118 0 00-1.527.03c-.372.216-.446.463-.1.752-.041.434-.11.956-.546 1.168-.377.22-.783.391-1.107.694-.454.23-.888.59-1.153 1.002-.134.405-.018.672.407.764.691.11 1.402.194 2.087.01.466-.055.851-.344 1.169-.673.225-.483.47-.959.658-1.459.407-.197.562-.612.475-1.046-.077-.222.083-.445.08-.096.075.593-.027 1.192 0 1.789 0 .84-.184 1.66-.261 2.494-.268.359-.31.804-.483 1.202-.257.522-.454 1.117-.956 1.459-.341.45-.654.93-.992 1.385-.302.368-.638.707-.915 1.096-.377.349-.592.828-.914 1.218-.38.206-.436.65-.698.959-.25.32-.34.733-.633 1.027-.261.445-.367.978-.722 1.368-.098.181-.49.678-.198.217.26-.43-.382-.658-.573-.98-.35-.395-.811-.66-1.213-.995-.42-.207-.84-.064-1.196.206-.473.143-.245.715.053.934.2.224.775.522.82.6-.436-.237-.924-.35-1.357-.591-.435-.141-.856.057-.998.496-.133.387-.413.809-.138 1.193.29.3.632.65 1.032.836.435.192.926.27 1.396.29.486 0 .862-.305 1.245-.565.221-.33.614-.94.762-1.076-.295.606-.728 1.13-1.174 1.628-.264.35-.502.723-.846 1.003-.394.54-.781 1.083-1.153 1.638-.383.804-1.004 1.457-1.48 2.203-.31.378-.551.802-.758 1.242-.293.461-.674.856-.949 1.33-.4.57-.82 1.126-1.217 1.7-.238.346-.327.779-.573 1.127-.403.571-.714 1.216-.854 1.903-.168.53-.326 1.064-.452 1.605-.026-.445.247-.848.164-1.302-.216-.294-.78-.377-1.127-.22-.434.163-.56.659-.54 1.08-.05.611.272 1.178.65 1.635.37.206.553.573.768.918.296.39.292.911.314 1.38-.054.768-.174 1.538-.507 2.24-.363 1.091-.599 2.221-.974 3.31-.122 1.097-.213 2.2-.196 3.304.203.619.126 1.277.224 1.91.13.499.205 1.014.434 1.482.047.642.223 1.268.197 1.916-.012.803.025 1.635-.266 2.396-.268.422-.585.808-.853 1.23-.141.493-.058.99-.02 1.49.066.743 0 1.49-.21 2.205-.065.48.199.747.521 1.029.178.38.565.675.488 1.133.042.525 0 1.048-.092 1.565-.022.193-.01.483-.05.43-.218.493-.137 1.037-.121 1.56.058.736-.08 1.475.043 2.206-.043.921-.037 1.843-.098 2.764.049.479.13.993-.042 1.452-.098.45-.604.623-1.02.598-.403.045-.775.28-1.022.6-.258.404-.53.807-.958 1.047-.424.205-.49.786-.272 1.148.196.348.727.546 1.033.225.285-.091-.078.424-.255.505-.158.364-.23.688.248.768.5.133.583.594.475 1.047-.072.511-.341.958-.657 1.355-.338.526-.755.997-1.087 1.527-.455.065-.866-.089-1.282-.251-.367-.172-.845-.044-1.105.262-.264.301-.408.758-.308 1.143.286.386.496.82.686 1.26.04.367.041.7-.422.637-.447.062-.86-.132-1.23-.361-.48-.267-1.047-.304-1.584-.236-.419.095-.82.12-1.17-.168-.403-.173-.745-.563-1.212-.486-.478.01-.377.75-.144 1.053 0 .449-.226.817-.625 1.022-.36.16-.527.563-.915.678-.299.238-.49.633-.686.962-.14.482-.31.987-.185 1.49.19.325.537.618.898.75.513.164 1.07.129 1.58-.033a6.334 6.334 0 001.154-1.625c.244-.34.62-.526 1.02-.618.432-.14.93-.05 1.302.205.361.173.52.59.779.833.457.264.916.015 1.395 0 .48-.103.94.22.798.737.011.455-.28.793-.508 1.153-.167.449-.563.782-.528 1.298-.148.54-.025 1.245-.644 1.487-.258.385-.698.424-1.111.532-.408.096-.761.347-1.184.395-.65.198-1.032.821-1.561 1.211-.25.309-.602.52-.849.818-.31.508-.672.983-1.02 1.466-.168.348-.295.76-.632.985-.358.263-.865.358-1.276.176-.366-.14-1.07-.09-.938.41.263.327.769.32.97.685.269.372.154.89.05 1.31-.183.443-.649.69-.873 1.11-.169.483.391.744.827.652.404-.258.866.058.787.522.028.446-.218.848-.284 1.284-.168.482-.025 1.046-.186 1.494-.204.422-.74.266-1.05.56-.361.226-.01.757.267.959.185.177.49.425.05.232-.382-.185-.782.074-1.172.127-.397.091-.611.503-.858.798-.41.353-.753.802-1.212 1.085-.434.204-.766.57-1.208.766-.468.29-1.034.289-1.562.349-.426-.04-.657.392-.567.717.415.225.759.554 1.163.797.276.37.397.819.43 1.274.066.46-.04.936-.271 1.338-.182.398-.62.458-.94.669-.391.214-.332.847.02 1.066.34.246.823-.102 1.157-.28.172-.361.522-.577.726-.91.178-.383.58-.573.846-.886.266-.42.624-.765 1-1.09.434-.183.813.166.753.614.053.773-.365 1.47-.735 2.117-.204.343-.486.634-.62 1.018-.247.332-.47.68-.613 1.074-.227.545-.518 1.06-.74 1.608-.247.523-.513 1.045-.619 1.619-.14.367-.379.758-.793.833a6.597 6.597 0 01-2.271.169c-.61.09-1.232.19-1.84.043-.441-.281-.755-.723-.94-1.206-.108-.429-.204-.902-.558-1.198-.258-.386-.736-.203-1.121-.47-.424-.242-.893-.362-1.351-.518-.518-.166-.857-.64-1.338-.883-.32-.299-.63-.782-1.162-.643-.47.044-.962 0-1.377.26-.398.226-.811.525-1.294.462-.473-.01-.407-.756-.475-1.121-.038-.439-.056-.935.213-1.303.24-.348.558-.64.944-.815.509-.25.24-.686.215-1.121-.088-.428.125-.86.461-1.122.354-.264.738-.508.986-.886.356-.412-.242-.865-.648-.954-.468-.24-.997-.301-1.511-.377-.272-.233-.538-.728-.934-.607-.45.019-.706.465-1.157.49-.42.12-.904.168-1.235-.157-.28-.347-.317-.795-.363-1.224-.079-.538.083-1.08.34-1.55.15-.458.596-.712.871-1.077.292-.314.075-.87-.37-.821-.424-.087-.898.029-1.192.358-.207.323-.44.634-.673.941-.219.33-.39.774-.828.835-.545.164-1.085.42-1.667.361-.455-.326-.099-.967.02-1.427.06-.294-.619-.321-.856-.164-.368.139-.727.302-1.043.54-.37.046-.686.027-.659-.426-.128-.288.471-.695-.086-.713-.46-.155-.953-.168-1.428-.261-.356-.197-.622-.565-1.021-.662-.407-.211-.754.188-1.032.446-.273.308-.674.349-.99.084-.297-.265-.573-.627-.99-.678-.466-.01-.405-.615-.68-.893-.299-.311-.739-.521-1.173-.519-.55-.163-.647.516-1.148.509-.405.101-.678-.425-1.1-.476-.336.231-.872.171-1.029-.226-.219-.397-.107-.874-.313-1.278-.121-.415-.473-.646-.874-.755-.46-.217-.974-.153-1.467-.127-.5.033-1.003.048-1.486.196-.315-.46.233-.843.128-1.337-.143-.328-.405-.77-.77-.876-.478-.148-.941.074-1.41.162-.61.173-1.238.26-1.866.343a.788.788 0 01-.452-1.015c.14-.425.484-.734.704-1.117.41-.314.287-.87-.261-.874-.41-.099-.69-.38-.98-.655-.35-.285-.854-.327-1.275-.2-.39.11-.753.307-1.16.136-.264-.405-.582-.798-.642-1.293-.24-.418-.752-.4-1.185-.373-.412.015-.938-.022-1.157-.421-.26-.371-.192-.884.058-1.251.172-.353.503-.574.721-.889.232-.298.39-.782-.01-1.012-.362-.237-.477-.624-.613-.981-.29-.366-.784-.18-1.095-.466-.546-.295-.06-.867.395-.91.359-.178.663-.592.634-.999-.07-.668-.498-1.225-.6-1.885.158-.397.572-.568.777-.91.255-.404.156-.931.045-1.373-.062-.431.332-.73.674-.923.256-.3.674-.564 1.071-.415.467.031.312.713.803.818.406.04.846-.19 1.22-.376.842-.453 1.56-1.127 2.46-1.474.596-.107 1.208-.179 1.806-.043.462-.098.974-.212 1.268-.615.255-.375.292-.876.346-1.321.03-.502-.071-1.042.132-1.513.134-.386.406-.727.83-.79.845-.2 1.741-.102 2.582-.311.453-.161.726-.572 1.001-.942.224-.359.325-.805.155-1.205-.073-.448-.545-.63-.945-.693-.45-.126-.901-.04-1.343.07-.58.1-1.173.16-1.754.03-.273-.301-.51-.712-.938-.79-.471-.183-.976.072-1.469.039-.764.023-1.543.012-2.267-.264a3.504 3.504 0 01-1.214-.762c-.292-.379-.741-.615-1.165-.817-.57-.214-1.2-.263-1.8-.19-.366.144-.892.062-1.13.394-.223.32-.41.706-.825.798-.451.087-.146-.609-.206-.819-.29-.31-.713-.369-1.075-.557-.423-.156-.477-.736-.277-1.1.21-.337.396-.693.582-1.046.264-.351.41-.811.318-1.247 0-.514-.454-.747-.918-.713-.68.06-1.333.262-2.008.352-.486.201-.94.487-1.47.56-.845.206-1.6.668-2.433.917-.403.268-.842.502-1.327.585-.413.106-1.343.308-1.204-.373 0-.493.25-.94.24-1.438-.065-.423-.513-.658-.913-.715-.697-.103-1.404-.109-2.098-.244-.516-.084-1.034-.159-1.558-.129-.45-.19-.411-.732-.14-1.055.267-.345.724-.475 1.147-.472.467-.05.89.133 1.277.351.486.163.949-.035 1.38-.26.437-.145.742-.471 1.08-.761.484-.372.938-.79 1.346-1.24.146-.375.59-.51.693-.897.165-.402.523-.694.452-1.173-.09-.385-.225-.813-.446-1.146-.326-.3-.494-.728-.851-1-.385-.299-.645-.888-.34-1.32.444-.083.721.295 1.124.342.606.124 1.25.01 1.768-.332.338-.196.547-.553.877-.77.326-.34.8-.38 1.244-.306a3.07 3.07 0 001.505-.078c.335-.325.277-.794.438-1.196.08-.447.6-.498.939-.694.414-.105.81-.388.69-.84-.287-.356-.68-.622-1.135-.705-.404-.097-.736-.33-.869-.735-.092-.48-.61-.624-1.042-.562-.409-.037-1.092.363-.988-.314.226-.232.659-.56 1.026-.578.642.045 1.293.047 1.933.016a1.838 1.838 0 001.1-.557c.412-.334.303-.909.065-1.318-.124-.459-.42-.841-.774-1.148-.18-.459-.295-.968-.156-1.454.105-.398.578-.523.909-.698.298-.243.725-.312.95-.634.27-.313.556-.614.645-1.031.156-.403.123-.842.013-1.252-.061-.434-.41-.715-.598-1.091-.414-.661-.836-1.317-1.26-1.97-.286-.537-.844-.86-1.393-1.08-.495-.109-.965.045-1.45.088-.468.12-.6-.485-1.052-.518-.392-.141-.887-.145-1.185.177-.324.446-.421.997-.494 1.532-.232.399-.689.433-1.044.665-.406.218-.745.551-1.158.747-.51.228-1.086.15-1.63.219-.69-.01-1.386.023-2.068.122a7.485 7.485 0 01-2.573.197c-.489-.032-.929-.28-1.421-.298-.619-.076-1.267-.01-1.813.31-.48.234-.863.608-1.223.994-.233.13-.53.585-.685.546-.092-.427-.02-.875-.15-1.302-.14-.389-.387-.807-.278-1.226.074-.466.316-.881.61-1.242.281-.684.594-1.367.658-2.114-.27-.325-.642-.53-1.047-.643-.395-.14-.934-.181-.922-.715-.048-.46-.022-.921-.568-1.055-.358-.148-.744-.388-.839-.786-.083-.387-.533-.648-.292-1.068.238-.428.757-.384 1.187-.432.545-.053 1.069-.268 1.606-.317.519.11 1.066.047 1.562.254.518.11 1.068.104 1.596.064.441.026.732-.327.946-.67.303-.464.856-.667 1.22-1.075.3-.263.667-.561.687-.99.103-.373-.242-.723-.606-.758-.366-.127-.87-.153-.76-.668-.045-.868.3-1.72.839-2.391.24-.304.406-.668.734-.893.299-.248.506-.589.768-.863.37-.317.87-.3 1.331-.344.474-.043.957.03 1.414-.137.679-.304 1.405-.579 1.966-1.082.336-.32.65-.708.957-1.016.434-.16.824.245 1.243.072.457-.035.61-.559.749-.928.1-.463-.021-.92-.176-1.358-.01-.456-.44-.693-.822-.834-.42-.178-.902-.041-1.348-.038-.289-.346-.407-.796-.395-1.242.01-.434-.012-.945-.38-1.235-.3-.255-.664-.454-.865-.808-.237-.388-.204-.858-.4-1.263-.228-.6-.364-1.228-.463-1.86-.265-.278-.336-.778-.712-.907-.448-.21-.997-.174-1.278.277-.333.45-.947.41-1.45.408-.437-.064-.78.232-1.062.414-.46-.096-.59-.547-.723-.941-.158-.376-.182-.79-.308-1.167-.152-.488-.703-.57-1.152-.562-.412.04-.857-.087-.986-.52-.326-.29-.886-.067-1.217-.283-.33-.31-.623-.659-.956-.966-.48-.115-.969-.076-1.442.053-.45.092-.885.251-1.258.522-.296 0-.701.1-.54-.331.034-.417.388-.735.51-1.136.238-.392.346-.928.128-1.336-.2-.39-.644-.569-1.064-.582-.463-.071-.907.053-1.314.262-.23.088-.76.165-.793-.01.548-.35 1.135-.656 1.598-1.121.467-.309.953-.586 1.322-1.017.368-.275.345-.807-.11-.97-.435-.075-.858-.017-1.275.109-.392.082-.943.248-1.228-.11-.34-.29.074-.777.23-1.095.389-.282.957-.108 1.391-.243.543-.118.254-.761.205-1.152-.133-.513-.096-1.048-.131-1.57-.09-.382-.182-1.005-.678-.987-.375-.104-1.116.14-.81-.487.289-.301.596-.636.624-1.073-.043-.416-.192-.862-.243-1.285-.224-.326-.474-.81-.942-.698-.506-.01-1.011.093-1.511-.033-.374-.16-.581-.669-.49-1.052.094-.558.768-.313 1.18-.377.834 0 1.716.042 2.47-.374.602-.356 1.212-.713 1.736-1.181.292-.305.729-.331 1.055-.574.378-.267.833-.39 1.28-.485.5-.055.863.334 1.322.354.467-.032.971.105 1.387-.166.322-.231.581-.552.98-.688.76-.45 1.59-.78 2.43-1.045.472-.182.986-.01 1.459-.18.426-.086.77-.362.852-.802-.058-.401-.024-.929-.392-1.181-.301-.316-.815-.236-1.073-.604-.254-.308-.268-.787-.532-1.092-.366-.246-.736-.546-.851-.991-.168-.47-.652-.575-1.102-.566-.493-.11-.962.205-1.433.066-.51-.049-.523-.733-.54-1.142-.079-.38-.31-.897-.737-.92-.455-.014-.959.01-1.329.302a1.662 1.662 0 01-1.197.319c-.37-.358-.634-.8-.89-1.243-.15-.487.074-.834.554-.973.417-.227.91-.192 1.354-.342.365-.195.731-.405 1.116-.57.369-.155.71-.472.693-.899.112-.471-.57-.603-.921-.723-.558-.13-.573-.733-.791-1.17-.259-.346-.746-.455-1.165-.47-.595.029-1.192-.107-1.78.033-.455.018-.86.176-1.199.484-.5.332-.888.796-1.352 1.172-.159.381-.475.626-.77.895-.21.372-.902.182-.635-.283.04-.431.194-.86.02-1.282-.116-.406-.206-.813-.1-1.233.103-.49.124-.99 0-1.48-.05-.464-.392-.8-.622-1.185-.225-.387-.348-.913-.151-1.317.228-.632.64.04.963.253.327.28.814.658 1.243.413.426-.136.607-.6.63-1.016.197-.359.669-.464 1.005-.675.34-.313.838-.23 1.265-.216.41-.012.85.153 1.236-.026.437-.128.794-.403.741-.899 0-.394-.585-.686-.49-1.055.164-.366.358-.782.189-1.18-.091-.41-.142-.9.284-1.131.52-.32 1.03-.716 1.663-.755.522-.085 1.06-.015 1.564.136.455.345 1.017.481 1.577.532.4-.125.796-.41.828-.859.113-.568.022-1.152.126-1.723a1.166 1.166 0 00-.61-1.014c-.465-.119-.067-.713.273-.753.474-.095.786-.375.758-.885-.128-.44.017-.864.29-1.217.21-.35.604-.537.771-.924.21-.335.325-.765.173-1.139-.127-.441-.642-.612-1.06-.528-.454.038-.888.212-1.352.15-.344-.283-.345-.756-.079-1.093.51-.62.778-1.385 1.1-2.11.119-.602.168-1.234-.033-1.824.127-.394.356-.78.771-.914.464-.186.819-.303 1.287-.232.424-.179.535-.658.907-.902.29-.345.852-.722 1.258-.364.367.266.784.385 1.21.187.222-.369.242-.835-.012-1.191-.269-.349-.413-.842-.138-1.227.211-.567.683-1.015.801-1.616.11-.485.077-1.01-.143-1.46-.185-.401-.147-.874-.22-1.274-.125-.366-.902-.421-.6-.825.132-.4.61-.501.857-.825.604-.312.61.56.525.962-.057.446 0 1.048.568.97.401-.194.793-.471 1.257-.444.48-.028.96-.053 1.423-.195.353.012.766-.036.664.448.057.452-.01.96.418 1.245.48.113.966.079 1.44-.045.368-.124.808-.105 1.102-.384.595-.527 1.439-.659 2.004-1.222.33-.338.338-.853.294-1.297-.047-.498-.088-1.015.112-1.485.288-.243.716-.512.662-.972.048-.466-.458-1.114.182-1.308.408-.138.86-.54 1.264-.206.377.254.841.365 1.204.027.407-.258.635-.71 1.029-.99.323-.32.82-.406 1.255-.304.5.071 1.003.137 1.503.21.384-.125.736-.369.866-.767.111-.402.473-.664.568-1.075.153-.385.434-.705.846-.806.772-.26 1.577-.028 2.363.018.29-.276.395-.774.78-.914.442-.176.935-.24 1.402-.134.398.085.616-.658.765-.724.125.49.67.702 1.13.748.611.073 1.241.136 1.853.052.93-.185 1.845-.46 2.775-.632.476.098.88-.155 1.192-.495.26-.296.66-.542.89-.086.4.142.927.315 1.338.2.432-.161.508-.648.685-1.023.14-.389.31-.763.723-.916.997-.159 2.003-.38 2.893-.876.382-.167.513-.63.494-1.02-.048-.492-.418-.906-.424-1.407-.114-.58.343-1.099.296-1.68-.094-.437.228-.964.716-.818.402-.034.71-.392.891-.735.14-.491.516-.851.771-1.283.334-.262.36-.73.655-1 .282-.31.732-.324 1.073-.545.39-.154.735-.374.998-.705.327-.37.714-.677 1.042-1.046.29-.236.588-.556.985-.557.558-.07 1.125.17 1.517.564.433 0 .744-.512 1.071-.785.347-.264.784-.229 1.193-.168.532.065 1.044.234 1.579.28.433.056.819.285 1.247.344.505.039.961.29 1.47.313a1.83 1.83 0 001.293-.373c.364-.233.906-.357 1.294-.214.345.303.709.583 1.03.91.303.342.765.355 1.178.469.523.135 1.074.028 1.607.106.526.105.557.66.56 1.11.031.44.042.928.319 1.29.27.335.836.256 1.218.463.285.423.563.856.726 1.342.31.326.312.775.47 1.17.194.44.251.922.417 1.371.24.19.635.627.914.374.342-.274.42-.74.56-1.136.16-.353.534-.586.825-.838.503-.329 1.097-.595 1.386-1.153.264-.363.368-.794.458-1.226.232-.43.03-.86-.046-1.302-.058-.45-.188-1.012.273-1.283.43-.324.952-.52 1.312-.94.402-.282.457-.803.713-1.196.257-.648.275-1.36.28-2.048-.041-.747-.3-1.453-.568-2.142-.208-.66-.177-1.355-.147-2.037-.085-.506.23-.95.185-1.453.03-.518.087-1.038-.087-1.539.01-.533-.222-1.006-.404-1.495-.285-.63-.463-1.344-.985-1.83a2.996 2.996 0 01-.701-.9c-.272-.41-.52-.837-.875-1.182-.2-.334-.438-.77-.285-1.151.198-.47.546-.86.729-1.34.297-.589.524-1.207.81-1.8.363-.265.617-.672 1.046-.84.317-.333.181-.909-.05-1.291-.11-.512-.493-.906-.648-1.396-.1-.43-.09-.916-.349-1.286a1.145 1.145 0 01.01-1.266c.223-.483.666-.79 1.051-1.137.27-.465.662-.849 1.086-1.172.4-.246.842-.425 1.188-.751.359-.166.738-.457.73-.887.22-.569-.605-.369-.67-.879-.13-.429.103-.925.228-1.354.061-.388.521-.755.298-1.133-.145-.416-.679-.481-1.027-.69a1.141 1.141 0 01-.288-1.151c.177-.494.186-1.033.076-1.542-.216-.475-.156-1.008-.31-1.5-.07-.468-.113-.939-.245-1.396-.078-.46-.186-.981.033-1.41.186-.376.287-.827.726-.98.401-.272.874-.296 1.344-.312.53.063.92-.347 1.437-.383.574-.115 1.157-.416 1.715-.096.458.298.88.686 1.464.496.557.016.998-.303 1.442-.599.355-.278 1.032-.568 1.346-.123.29.283.55.585.65.987.274.379.781.304 1.092.584.335.247.392.73.813.875.381.162.846.19 1.096.576.347.383.286.921.142 1.381-.148.463-.402.89-.34 1.395-.021.489-.186.944-.345 1.4-.203.426-.043.892.139 1.297.31.659.748 1.252 1.256 1.773.193.416.1.815-.282 1.078-.52.267.218.622.2 1.032.235.655.108 1.36.18 2.04.039.466-.07.94.01 1.398a8.39 8.39 0 00.667 2.047c.166.433.388.919.158 1.367-.116.375-.52.7-.534 1.077.147.409.62.513.791.892.237.36.23.813.364 1.215.238.813.252 1.666.36 2.502-.078.584-.245 1.184-.077 1.767.16.567.54 1.064.565 1.668.079.45.046.914.204 1.351.035 1.241-.094 2.525-.67 3.644-.162.502-.487.924-.685 1.411-.428.551-.563 1.256-.951 1.83-.262.81-.406 1.65-.474 2.497-.158.963-.279 1.936-.58 2.868-.101.673-.196 1.347-.404 1.997-.157.603-.16 1.234-.292 1.844-.136.494.094 1-.07 1.494-.103.452-.25.894-.345 1.35-.2.546-.231 1.132-.336 1.7.066.743.159 1.49.428 2.191.01.707.034 1.426-.204 2.104-.107.39-.35.726-.49 1.107-.343.32-.49.927-.191 1.29.245.34.717.32.987.638.422.275.404.765.458 1.197.168.369.56.586.675.976.172.443.162.935.06 1.395-.174.368-.295.839.064 1.134.371.25.743.542.821 1.011.247.53.369 1.101.455 1.676.218.32.256.86.646 1 .425.106.715.463 1.11.639.572.287 1.118.62 1.63 1.005.302.225.813.25.787-.245.117-.45.077-.918-.085-1.353-.087-.494-.354-.93-.42-1.43-.19-.516-.374-1.04-.678-1.502-.214-.355-.233-.8-.476-1.13-.264-.394-.599-.725-.925-1.063-.245-.319-.658-.818-1.056-.54-.273.432-.161.936.059 1.364.067.186.319.705.047.286a2.16 2.16 0 01-.286-1.34c.05-.426.2-.926-.074-1.3-.349-.572-.844-1.043-1.148-1.646-.194-.359-.312-.755-.551-1.092-.09-.252-.392-.917-.342-.894.232.37.357.798.71 1.084.278.478.565.96.918 1.386.533.546.907 1.229 1.485 1.735.461.79 1 1.533 1.467 2.32.232.339.477.672.552 1.086.222.384.54.73.68 1.164.167.423.469.777.684 1.177.386.526.64 1.124.847 1.74.24.412.264.894.45 1.326.16.442.332.882.481 1.327.09.485.29.956.237 1.458-.035.934-.01 1.892-.318 2.788-.19.555-.282 1.138-.473 1.693-.061.776-.282 1.548-.156 2.33.11.46.354.89.441 1.377.168.568.546 1.07.582 1.677.098.727.525 1.38.504 2.126.053.498.155.99.112 1.495a14.82 14.82 0 010 1.977c.23.506.388 1.058.304 1.616a8.732 8.732 0 01-.375 2.108c-.101.498-.251.986-.49 1.435-.174.83-.555 1.612-.571 2.471-.075.78.212 1.53.355 2.286.141.505.213 1.025.218 1.55.181.567.159 1.17.332 1.74.136.565.262 1.134.26 1.718.201.537.497 1.034.605 1.603.166.732.474 1.424.741 2.122.3.598.53 1.265.44 1.941-.057.635-.049 1.278.13 1.895.169.697.324 1.396.458 2.1.133.412-.061.836-.097 1.252-.176.843-.371 1.684-.436 2.544-.115.64-.234 1.282-.195 1.934-.203.853-.03 1.729-.064 2.594.058.478-.026.988.14 1.442.332.841.46 1.75.483 2.652-.138.906-.237 1.817-.4 2.72-.096.556-.196 1.113-.159 1.681.01.645-.031 1.292.066 1.933l-.033.7h.004zm-350.925-134.08c.865-1.943 3.595-1.929 4.05-4.13.792-1.102 2.092-1.676 3.26-2.29 1.698-.477 1.778 1.472.168 1.411-1.838 1.348-1.86 4.276-4.02 5.279-.903-1.088-2.686 2.172-3.345.037l-.086-.232-.028-.075h0zm-5.697 2.154c-.97-1.18 1.334-2.174 2.278-1.992 1.583.556-.208 1.992-1.134 2.188-.402.077-.939.313-1.143-.196zm-22.751.27c.672-1.482 2.127-.337 3.21-.89 1.305-.316 1.627-1.611 2.62-2.314 1.044-1.693 1.811.143 1.545 1.319-.299 2.344-2.513 3.939-4.675 4.486-.774-1.07-1.298-1.615-2.964-1.255-.499-.494.045-.876.264-1.346h0zm-151.263-52.465c.694-1.573 2.54-.017 3.76.024 2.052.182 1.89 1.353-.105.835-1.104-.345-3.145.405-3.655-.858h0zm-195.876 82.836c-1.2-1.993-.311-4.5-.39-6.707.143-1.17 2.038-2.457 1.704-.476-.201 2.343-.014 4.713.251 7.022-.312 2.103-.666 1.564-1.565.16h0zm-477.131-432.31c-1.064-.261-1.382-3.212.115-2.223 1.254-.1 2.544.786 2.004 2.232-.333 1.095-1.72.181-2.12-.01h0zm-6.75-37.734c-.376-3.34-.88-6.891-3.161-9.518-1.8-.989-1.955-3.33-3.26-4.715-1.689-.598-2.427-2.452-4.16-2.914-1.824-1.07-2.61-3.343-4.796-3.881-1.255-1.266-1.609-3.45-.981-5.04 1.035-1.836.68-4.234-.73-5.823-1.073-1.576-2.866-3.214-2.339-5.295 1.686-.078 3.49.537 4.953 1.353.735.887 1.18 1.935 2.39 2.392 2.139 1.392 4.026 3.076 5.894 4.81 1.332.895 2.302-1.015 3.523-.66.775 1.07 1.21 2.382 2.4 3.114 1.535 1.372-1.403 3.141.168 4.489.872.8 1.519 2.075.407 3-.42 1.473 1.752 1.84 2.59 2.662 1.605 1.395 4.074 2.835 3.55 5.33-.555 1.387-1.23 2.698-1.048 4.253-.259 1.99-.256 4.313-1.58 5.924-1.472.16-1.368 1.608-1.943 2.496-1.45.224-1.696-.934-1.877-1.977h0zm7.737-31.891c.079-1.698 2.487-3.017 3.458-1.181.402 1.59-2.12.575-2.535 1.863-.624 1.835-.799.377-.923-.682zm-15.705-22.43c-3.205-.734-5.729-2.97-8.857-3.933-1.457-1.459-3.438-2.123-4.94-3.508-1.619-.379-3.3.177-4.888-.41-1.672.389-3.56 1.072-5.12-.112-1.451-.711-3.136-1.811-2.898-3.653-.344-1.219-2.262-1.706-1.614-3.179 1.32-1.199 3.456 1.018 4.478-.806 1.282-.564 3.16-.93 4.332-.211.31 1.079 1.12 2.496.31 3.485-1.197-.319-1.792-1.613-3.196-1.076-1.616-1.1-1.182 1.693-.038 2 1.03.645 2.261.797 3.3 1.448 1.394-.302 2.863-.193 2.722-2.066.825-1.016 2.48.312 3.568-.686 1.462.905-1.695 1.268-1.308 2.262 1.075 1.223 3.083 1.31 4.65 1.343 2.008-.107 4.468-.627 5.88 1.236 1.482 1.375 4.144-.161 5.166 1.989.38 1.852 2.089 2.868 3.392 3.982.815 1.476-.827 2.384-2.124 2.038-.95.088-1.87-.045-2.815-.143h0zm-120.147-88.428c-.788-1.249-2.53-2.848-1.35-4.356 1.173-.64 2.268-1.802 3.72-1.053 1.243.427 2.414 1.005 3.324 1.971 1.328.177 2.287.939 3.033 2.004 1.033.5 2.677 1.143 2.555 2.468-.942 1.255-2.25-1.158-3.485-.204-1.3.923-2.253-.317-3.3-.699-1.286.43-2.448-.371-3.607.43-.403.118-.448-.585-.89-.56zm23.772-34.527c-1.535-2.808-2.138-6.484-5.136-8.22-1.784-.702-3.696-.268-5.51-.245-1.94-.85-1.508-3.57-2.039-5.29-.348-1.933-1.248-3.703-2.494-5.196.661-.812 2.4.778 3.496-.21 2.528-.937 5.567.118 7.337 2.04.998 1.584.053 3.482-.395 5.059-.074 1.812 2.363 1.36 2.963 2.784 1.221 1.337 3.37 1.849 3.853 3.703.79 1.712.484 3.866.037 5.658-.284 1.779-1.573.832-2.112-.083h0zm162.062 275.854c-.578-.935.72-3.563 1.317-1.756.09.6-.56 3.027-1.317 1.756zM366.94 655.735c1.063 1.17 3.14 2.006 3.194 3.724-1.604-1.135-3.604-2.056-4.248-4.063-1.73-1.368.59-.762 1.046.326l.008.013h0zm-111.883-13.12c1.588-.182 2.72.643.626 1.115-1.33.819-2.95-1.234-.626-1.114zm-11.952-8.724c1.09.852 2.383 1.084 3.721.728-1.056.943-1.185 1.592-2.996.775-1.27.18-2.582-2.246-.905-1.742l.148.197.032.042h0zm-28.777 2.231c1.012.786 2.448.344 2.963 1.648 1.581-.34 2.274 1.61 3.88 1.329 1.282.057 2.793.645 2.54 2.209.914.808.613 2.547 1.696 3.052 2.095-.486 2.169 2.42 4.034 2.567 1.39.281 3.237-.523 4.333.376.04 1.18-.618 2.439-1.6 3.206-.031 1.343-1.12 2.64-2.365 1.446-1.094-.785-2.698-1.848-3.792-.43-1.14-.359-2.25-.948-3.393-1.453-1.1-.249-2.235.44-3.509.016-1.359.678-2.965.087-3.635-1.225-1.28-.517-1.87-1.634-1.164-2.86-.063-1.737-1.915-2.85-1.634-4.647-1.04-.82-1.392-2.262-.922-3.49 1.688.75-.09-2.79 1.322-2.69.627.07.557.838 1.246.946h0zm45.207-35.124c1.877 1.006 1.059 1.32-.724 1.266-1.5.8.207 2.357-.971 3.262-.587 1.877-.574-1.374-.28-2.094-.043-1.425.61-2.822 1.679-3.748.737.15-.73 1.062.296 1.314h0zm5.137-.633c.777.67 1.9 2.914.329 1.358-1.09-.655-2.043 2.425-2.193.988-.6-2.067.944-1.396 1.179-2.94.164-.576.393.616.685.594zm-78.99-8.377c2.198-.688 3.59 2.023 5.842 1.524 1.499-.212 2.92 1.823 1.896 3.152-1.164-.24-2.422-.96-3.8-.355-2.27.35-4.049-1.64-5.584-3.054-.85-1.496.548-1.556 1.646-1.267h0zM127.37 407.124c.821.2 2.32 1.505 2.39 2.02-1.142.274-2.296-1.09-3.622-.491-2.616-.592.296-1.3 1.232-1.529zM21.084 466.422c.718 2.263-2.463.52-.214 0h.214zm-10.273-12.52c-1.179 1.669 2.852 1.79.955 2.228-1.687-.403-.914 2.562-2.72 1.768-1.733-.676-2.108 1.857-3.743 1.903-2.176.127.823-1.002.899-1.888-.381-1.765-2.642-.466-3.801-.263-1.862.936-1.103-1.377.178-1.618 1.32-.337 1.631-2.013 3.063-1.684 1.332-.05 2.439-.642 3.35-1.33.8-.047 1.194.8 1.82.884h0zM225.555 582.48c1.72.812-.415 2.065-1.48 2.132-.5-.183 1.372-1.859 1-2.797.322-.135.293.531.48.665h0zm16.76-194.15c-.295 1.02-.907 2.067-1.196 3.29.085 2.132-2.408.128-1.43-1.02.41-1.28-.908-1.73 1.17-2.127.477-.52.876-.568 1.455-.143zm-66.15 8.878c1.991-.463 1.297 1.902-.345 1.447-1.207-.012.157-1.178.346-1.447z" fill="#FEFEE4" fill-rule="nonzero" stroke="#0978AB" stroke-width=".8" stroke-linecap="round"/></svg>